<svg width="93" height="91" viewBox="0 0 93 91" fill="none" xmlns="http://www.w3.org/2000/svg">
<path d="M13.0429 40.2918C14.7224 35.5896 17.5782 31.1676 21.3801 27.3811C25.1824 23.5944 29.8252 20.5482 34.9362 18.4873C40.0474 16.4263 45.4844 15.4076 50.8109 15.513C56.1376 15.6188 61.2056 16.8455 65.6082 19.0952C70.0106 21.3445 73.6253 24.5543 76.162 28.4667C78.6986 32.379 80.0867 36.885 80.2147 41.623C80.3428 46.3611 79.2072 51.1993 76.8993 55.7494C74.5913 60.2996 71.1752 64.435 66.925 67.8238C72.5751 63.8583 77.0481 58.6883 79.8336 52.9037C82.6191 47.119 83.605 40.9526 82.6788 35.1078C81.7526 29.263 78.9516 23.9753 74.5954 19.8479C70.2391 15.7202 64.503 12.9193 58.0414 11.7642C51.5798 10.6091 44.6529 11.1464 38.0509 13.3151C31.4489 15.4837 25.4376 19.1961 20.7028 24.029C15.968 28.8619 12.7004 34.6203 11.2726 40.6477C9.84513 46.675 10.3148 52.7286 12.6282 58.1176C10.7418 52.4973 10.8864 46.286 13.0429 40.2918Z" fill="#FBF8F8" fill-opacity="0.7"/>
<path d="M46.5613 23.2925C33.6176 23.2925 23.1238 33.7862 23.1238 46.73L23.1246 46.7714L23.1238 46.8128C23.1238 59.7112 33.559 70.1675 46.4324 70.1675L46.4824 70.1659L46.5613 70.1675C59.5051 70.1675 69.9988 59.6737 69.9988 46.73C69.9988 33.7862 59.5051 23.2925 46.5613 23.2925ZM68.4363 46.73C68.4363 48.6003 68.2004 50.4151 67.7598 52.1472C67.5559 52.0065 67.0168 52.5878 66.884 51.8175C66.7176 50.8612 65.6395 50.1972 65.059 50.6542C64.4785 51.1112 62.8199 52.4401 62.7379 53.2714C62.6543 54.1019 61.9488 55.0987 61.6184 54.394C61.2856 53.6878 60.2918 51.4854 60.3324 50.9042C60.3731 50.3229 59.8746 51.112 59.1309 49.9487C58.384 48.7854 57.0988 49.7815 56.0621 49.2003C55.0254 48.6183 53.8645 47.8292 53.2832 47.5808C52.7043 47.3308 54.3199 49.9065 54.5277 49.5745C54.7363 49.2425 55.5645 49.8237 55.8137 49.8237C56.0629 49.8237 56.7254 50.405 56.3113 50.9456C55.8973 51.4862 52.2074 53.7315 51.834 53.1472C51.459 52.5628 49.2637 48.037 48.8895 48.3144C48.516 48.5917 51.2121 53.3128 51.6684 53.6034C52.1231 53.8948 53.4926 53.6456 54.1551 53.355C54.8192 53.0644 52.7871 56.5956 51.9176 57.0112C51.0473 57.4261 50.3426 58.7144 50.7145 59.2956C51.0879 59.8769 51.1293 62.0792 50.3426 62.3706C49.5535 62.6604 49.2637 63.1175 49.5121 63.6581C49.7598 64.1972 48.9324 65.1104 48.559 65.6925C48.1848 66.2737 46.7348 67.4784 46.6098 67.8112C46.4863 68.144 44.7035 68.0605 43.9973 68.0605C43.2934 68.0605 43.8317 67.1878 43.7481 66.4409C43.6668 65.6925 43.0449 64.9862 43.0449 64.6128C43.0449 64.2386 42.8363 63.3659 42.5473 62.9511C42.2574 62.5347 42.1731 61.7456 42.4637 61.2894C42.7551 60.8315 42.9613 59.5034 42.3824 58.9214C41.8012 58.3401 41.1371 57.3425 41.5942 56.5534C42.0504 55.7644 41.0965 55.8479 40.309 55.4729C39.5207 55.0987 37.9035 55.5979 37.0746 55.7229C36.2449 55.8472 35.4168 55.5151 35.1676 55.0987C34.9192 54.6839 34.3801 53.6456 33.8277 53.3956C33.277 53.1472 33.5926 52.0667 33.9238 51.6519C34.2567 51.237 33.5926 50.4472 33.9238 50.1136C34.2567 49.7815 34.4629 48.5776 35.1262 48.3144C35.7902 48.0519 35.6652 47.8714 35.6856 47.2479C35.7067 46.6245 36.4317 46.6245 36.5551 46.2925C36.6801 45.9597 37.0527 45.794 37.8012 45.794C38.5473 45.794 39.8106 45.3573 40.4121 45.212C41.0137 45.0667 42.0504 44.8589 41.9668 45.4409C41.884 46.0222 41.9051 46.6862 42.2981 46.6862C42.6926 46.6862 43.2317 46.9151 43.8535 47.3026C44.4754 47.6894 44.4957 47.3729 44.5793 46.9362C44.6629 46.4995 45.5324 46.6659 46.4324 47.0815C47.3324 47.4972 48.5598 47.2058 48.952 47.1651C49.3465 47.1222 49.5129 45.9394 49.409 45.5448C49.3043 45.1503 48.6832 45.7315 48.2895 45.4823C47.8957 45.2339 47.3559 45.5448 46.9629 45.1909C46.5684 44.8386 46.5059 44.0073 46.9629 43.987C47.4184 43.9659 47.6473 43.8206 47.916 43.5097C48.1863 43.198 49.202 43.0112 49.5957 43.3222C49.9887 43.6339 50.5707 43.8417 50.9215 43.4886C51.2738 43.1362 50.2184 42.4511 49.9887 42.2636C49.7606 42.0769 49.9473 41.4745 49.7199 41.4745C49.491 41.4745 49.3043 41.5776 49.4293 41.869C49.5535 42.1597 48.766 42.6784 48.6402 42.3886C48.5168 42.0972 48.3098 41.537 47.9988 41.537C47.6887 41.537 47.2738 42.9495 47.2527 43.1776C47.2317 43.4065 46.6926 43.78 46.2582 43.78C45.8238 43.78 45.8238 44.2792 46.0512 44.5081C46.2793 44.7362 46.1129 45.6503 45.6988 45.7026C45.284 45.7558 45.1387 45.6089 45.077 45.255C45.0152 44.9026 44.6004 44.944 44.5793 44.2167C44.5582 43.4894 44.102 43.137 43.8121 42.8042C43.5223 42.4714 42.7754 41.4956 42.4856 41.9323C42.1957 42.369 43.5223 43.3034 43.8738 43.5519C44.2277 43.8011 44.1652 44.3409 43.9785 44.4659C43.7918 44.5909 43.4395 45.6089 43.2324 45.6909C43.0238 45.7737 42.8262 45.3815 42.8262 45.3815C42.5152 45.2573 43.2606 44.8831 43.3856 44.6964C43.509 44.5097 42.0801 43.2011 41.8223 42.8269C41.5645 42.4526 40.4629 43.1378 39.966 42.8894C39.4684 42.6409 38.7215 43.8237 38.6606 44.5089C38.5973 45.1948 37.7887 45.3808 37.0426 45.3808C36.2973 45.3808 35.7988 44.8206 36.0488 44.2597C36.2973 43.6987 35.9238 42.7644 36.3598 42.7019C36.7949 42.6401 38.0371 42.7019 38.2863 42.0167C38.5348 41.3315 37.1043 40.7081 37.6652 40.5839C38.2238 40.4589 39.0957 39.5878 39.7176 39.0886C40.3379 38.5901 40.4004 37.9675 40.9598 37.9237C41.5207 37.8808 40.8363 36.8448 41.334 36.5339C41.8324 36.2222 41.9559 37.6558 42.3293 37.6558C42.7027 37.6558 43.4473 37.5308 44.0699 37.8425C44.6926 38.1542 44.8785 37.5308 45.1277 36.7198C45.3762 35.9104 45.9981 35.4737 47.241 34.8511C48.4848 34.2276 45.8121 35.0378 45.3137 34.4144C44.816 33.7909 45.5004 32.4198 45.8121 31.4519C46.1231 30.4831 44.8168 32.4198 44.1324 33.4175C43.4473 34.4144 44.3192 34.8503 44.2559 35.5354C44.1942 36.2214 43.0762 37.0308 43.0762 37.0308C42.5785 37.0933 42.6402 36.0964 42.3918 35.6604C42.1426 35.2245 41.7067 35.4112 41.0223 35.9097C40.3379 36.4081 40.2762 34.7261 40.0902 34.0401C39.9051 33.3558 41.2098 32.4823 41.8231 32.0167C42.4356 31.5495 43.4473 29.305 44.5676 27.5612C45.6879 25.8167 47.3043 26.6886 47.7395 27.3745C48.1762 28.0589 49.2934 27.6229 50.352 28.8698C51.4098 30.1159 50.1027 30.6761 48.9231 30.1698C47.7395 29.6636 49.1707 31.4245 49.8535 31.9229C50.5379 32.4206 50.9113 30.8011 51.1606 30.4276C51.409 30.0534 52.341 30.2409 53.0246 29.2433C53.7098 28.2464 55.2637 28.4339 56.1512 28.5433C57.0395 28.6534 56.8184 27.9972 56.259 27.4604C55.8449 27.0636 56.6918 27.4112 57.6887 27.8979C64.1207 31.705 68.4363 38.712 68.4363 46.73ZM37.2192 39.2862C37.0129 39.0729 37.4277 38.2331 37.6137 37.9839C37.8012 37.7347 37.0949 37.8175 37.1379 38.1714C37.1793 38.5237 36.8676 39.0644 36.4324 39.2097C35.9973 39.355 35.5012 39.3128 35.7488 38.9183C35.9965 38.5237 35.7692 38.1706 35.5824 37.7964C35.3965 37.4222 36.6184 37.194 36.8684 36.9659C37.1168 36.7378 36.4754 36.5917 36.4949 36.2394C36.516 35.8854 36.6613 35.5745 36.9082 35.5331C37.1574 35.4917 37.3902 35.3323 37.6137 35.3464C38.2988 35.3886 38.0895 36.9456 38.3395 37.4448C38.5879 37.9425 39.2934 38.5456 39.2309 38.9808C39.1684 39.4175 39.0356 39.6667 38.5277 39.5417C38.0176 39.4167 37.2012 40.1854 36.8887 40.0401C36.577 39.894 37.4277 39.4995 37.2192 39.2862ZM32.752 30.5511C33.3746 30.862 33.8707 30.2979 34.3051 30.1769C34.8199 30.0347 35.1137 31.8597 34.6168 31.7972C34.1192 31.7347 33.5598 32.794 32.841 32.7315C32.1215 32.669 32.4402 32.1714 31.6317 31.4237C31.4582 31.2628 31.3871 31.1175 31.3809 30.9901C31.5535 30.8237 31.7254 30.6565 31.9043 30.4964C32.184 30.4222 32.516 30.4331 32.752 30.5511ZM52.2067 61.9112C52.7871 61.787 52.6754 60.6823 53.202 60.6237C54.3215 60.4995 53.2434 63.6144 52.8293 64.487C52.4145 65.3597 52.2473 65.3175 51.8527 64.7776C51.4567 64.2386 51.5848 63.3651 51.8527 62.9503C52.1199 62.5339 51.6254 62.0362 52.2067 61.9112Z" fill="#FBF8F8" fill-opacity="0.7"/>
<path d="M6.65793 78.9428V77.2862H15.3618V78.9428H11.99V88.1953H10.0297V78.9428H6.65793ZM17.0397 88.1953V77.2862H21.1306C21.9687 77.2862 22.6718 77.4318 23.24 77.723C23.8117 78.0142 24.2432 78.4226 24.5344 78.9482C24.8291 79.4702 24.9765 80.0792 24.9765 80.7752C24.9765 81.4748 24.8273 82.082 24.529 82.5969C24.2343 83.1083 23.7993 83.5043 23.224 83.7848C22.6487 84.0618 21.942 84.2003 21.104 84.2003H18.1902V82.5597H20.8376C21.3277 82.5597 21.729 82.4922 22.0415 82.3572C22.354 82.2187 22.5848 82.0181 22.7339 81.7553C22.8866 81.489 22.963 81.1623 22.963 80.7752C22.963 80.3881 22.8866 80.0579 22.7339 79.7844C22.5812 79.5075 22.3486 79.2979 22.0361 79.1559C21.7236 79.0103 21.3206 78.9375 20.827 78.9375H19.0159V88.1953H17.0397ZM22.6753 83.2521L25.376 88.1953H23.1707L20.518 83.2521H22.6753ZM28.1965 88.1953H26.0871L29.9276 77.2862H32.3673L36.2132 88.1953H34.1038L31.1901 79.5234H31.1048L28.1965 88.1953ZM28.2657 83.918H34.0185V85.5053H28.2657V83.918ZM37.8644 77.2862L40.7036 85.8729H40.8154L43.6492 77.2862H45.8225L41.9766 88.1953H39.537L35.6965 77.2862H37.8644ZM47.2594 88.1953V77.2862H54.3546V78.9428H49.2356V81.9045H53.987V83.5611H49.2356V86.5387H54.3972V88.1953H47.2594ZM56.3707 88.1953V77.2862H58.3469V86.5387H63.1516V88.1953H56.3707ZM71.7503 80.7699C71.6615 80.4822 71.539 80.2248 71.3827 79.9975C71.23 79.7667 71.0454 79.5696 70.8287 79.4062C70.6157 79.2429 70.3706 79.1204 70.0937 79.0387C69.8167 78.9535 69.5148 78.9109 69.1881 78.9109C68.6022 78.9109 68.0802 79.0582 67.6221 79.353C67.164 79.6477 66.8035 80.081 66.5407 80.6527C66.2815 81.2209 66.1519 81.9134 66.1519 82.7301C66.1519 83.554 66.2815 84.2518 66.5407 84.8235C66.8 85.3952 67.1604 85.8303 67.6221 86.1286C68.0837 86.4233 68.6199 86.5707 69.2307 86.5707C69.7847 86.5707 70.2641 86.4641 70.6689 86.2511C71.0773 86.038 71.3916 85.7362 71.6118 85.3455C71.8319 84.9513 71.942 84.4897 71.942 83.9606L72.3895 84.0298H69.4278V82.4851H73.8543V83.7955C73.8543 84.7294 73.6554 85.5373 73.2577 86.2191C72.86 86.9009 72.3131 87.4265 71.6171 87.7958C70.9211 88.1616 70.1221 88.3445 69.2201 88.3445C68.2151 88.3445 67.3326 88.119 66.5727 87.668C65.8163 87.2134 65.225 86.5689 64.7989 85.7344C64.3763 84.8963 64.165 83.902 64.165 82.7514C64.165 81.8707 64.2893 81.0842 64.5379 80.3917C64.79 79.6992 65.1416 79.1115 65.5926 78.6286C66.0436 78.142 66.5727 77.7727 67.1799 77.5206C67.7872 77.2649 68.4477 77.1371 69.1615 77.1371C69.7652 77.1371 70.328 77.2259 70.85 77.4034C71.3721 77.5774 71.8355 77.826 72.2403 78.1491C72.6487 78.4723 72.9843 78.8558 73.2471 79.2997C73.5098 79.7436 73.6821 80.2337 73.7638 80.7699H71.7503ZM85.5131 82.7408C85.5131 83.9162 85.293 84.9229 84.8526 85.761C84.4158 86.5955 83.8192 87.2347 83.0628 87.6786C82.31 88.1225 81.456 88.3445 80.5007 88.3445C79.5454 88.3445 78.6896 88.1225 77.9332 87.6786C77.1804 87.2312 76.5838 86.5902 76.1435 85.7557C75.7067 84.9176 75.4883 83.9126 75.4883 82.7408C75.4883 81.5653 75.7067 80.5604 76.1435 79.7259C76.5838 78.8878 77.1804 78.2468 77.9332 77.8029C78.6896 77.359 79.5454 77.1371 80.5007 77.1371C81.456 77.1371 82.31 77.359 83.0628 77.8029C83.8192 78.2468 84.4158 78.8878 84.8526 79.7259C85.293 80.5604 85.5131 81.5653 85.5131 82.7408ZM83.5263 82.7408C83.5263 81.9134 83.3967 81.2156 83.1374 80.6474C82.8817 80.0756 82.5266 79.6442 82.0721 79.353C81.6175 79.0582 81.0937 78.9109 80.5007 78.9109C79.9077 78.9109 79.3839 79.0582 78.9293 79.353C78.4748 79.6442 78.1179 80.0756 77.8587 80.6474C77.603 81.2156 77.4751 81.9134 77.4751 82.7408C77.4751 83.5682 77.603 84.2678 77.8587 84.8395C78.1179 85.4077 78.4748 85.8391 78.9293 86.1339C79.3839 86.4251 79.9077 86.5707 80.5007 86.5707C81.0937 86.5707 81.6175 86.4251 82.0721 86.1339C82.5266 85.8391 82.8817 85.4077 83.1374 84.8395C83.3967 84.2678 83.5263 83.5682 83.5263 82.7408Z" fill="#FBF8F8" fill-opacity="0.7"/>
</svg>
