<svg width="215" height="60" viewBox="0 0 215 60" fill="none" xmlns="http://www.w3.org/2000/svg">
<path d="M66.3402 43.0977V42.4277L68.0502 42.0477V28.8777L66.3402 28.5077V27.8677H71.6102C72.7302 27.8677 73.7069 27.9143 74.5402 28.0077C75.3736 28.0943 76.1036 28.2443 76.7302 28.4577C77.3636 28.6643 77.9369 28.9477 78.4502 29.3077C79.3969 29.9543 80.1436 30.811 80.6902 31.8777C81.2369 32.9443 81.5102 34.1443 81.5102 35.4777C81.5102 36.851 81.2202 38.1077 80.6402 39.2477C80.0602 40.3877 79.2802 41.281 78.3002 41.9277C77.6669 42.3477 76.9736 42.6477 76.2202 42.8277C75.4736 43.0077 74.5602 43.0977 73.4802 43.0977H66.3402ZM73.0902 42.1177C73.9236 42.1177 74.6302 42.0077 75.2102 41.7877C75.7902 41.561 76.2869 41.201 76.7002 40.7077C77.1669 40.1477 77.5136 39.4243 77.7402 38.5377C77.9736 37.6443 78.0902 36.601 78.0902 35.4077C78.0902 34.2277 77.9736 33.221 77.7402 32.3877C77.5136 31.5477 77.1636 30.851 76.6902 30.2977C76.2636 29.8043 75.7336 29.4443 75.1002 29.2177C74.4669 28.9843 73.6936 28.8677 72.7802 28.8677H71.0702V40.9277C71.0702 41.3543 71.2202 41.661 71.5202 41.8477C71.8269 42.0277 72.3502 42.1177 73.0902 42.1177ZM89.9216 43.3077L84.4516 29.7177C84.3316 29.4177 84.1983 29.1877 84.0516 29.0277C83.9116 28.8677 83.7116 28.751 83.4516 28.6777C83.1916 28.5977 82.8283 28.541 82.3616 28.5077V27.8677H90.0116V28.5077C89.365 28.5543 88.8883 28.6177 88.5816 28.6977C88.2816 28.771 88.1083 28.8943 88.0616 29.0677C88.015 29.2343 88.0483 29.4843 88.1616 29.8177L91.2416 38.4777L91.4316 38.4877L94.2616 30.6777C94.435 30.1977 94.4916 29.8177 94.4316 29.5377C94.3783 29.2577 94.1816 29.041 93.8416 28.8877C93.5083 28.7277 93.0016 28.601 92.3216 28.5077V27.8677H98.2816V28.5077C97.655 28.601 97.175 28.721 96.8416 28.8677C96.5083 29.0143 96.245 29.2277 96.0516 29.5077C95.865 29.7877 95.675 30.1877 95.4816 30.7077L90.6916 43.3077H89.9216ZM99.6688 43.0977V42.4477L101.359 42.0577V28.8777L99.6688 28.5077V27.8677H111.459L111.819 32.2177H111.099C110.932 31.6843 110.725 31.1277 110.479 30.5477C110.232 29.9677 109.939 29.411 109.599 28.8777H104.379V42.0677H109.489C109.909 41.4677 110.249 40.8677 110.509 40.2677C110.769 39.6677 111.019 39.0677 111.259 38.4677H112.179L111.369 43.0977H99.6688ZM107.989 37.8177C107.915 37.4443 107.812 37.0677 107.679 36.6877C107.545 36.301 107.375 35.921 107.169 35.5477H104.069V34.5577H107.169C107.382 34.1777 107.552 33.7977 107.679 33.4177C107.812 33.031 107.915 32.651 107.989 32.2777H108.719V37.8177H107.989ZM127.567 43.3577L117.807 30.6977V42.0577L119.557 42.4477V43.0977H114.847V42.4477L116.607 42.0577V28.8777L114.847 28.5077V27.8677H119.827L127.517 37.7777V28.8777L125.757 28.5077V27.8677H130.477V28.5077L128.697 28.8777V43.3577H127.567ZM135.967 43.0977V42.4477L138.277 42.0277V28.8577H134.837C134.41 29.411 134.047 29.9943 133.747 30.6077C133.454 31.221 133.21 31.801 133.017 32.3477H132.337L133.057 27.8677H146.447L147.177 32.3477H146.497C146.297 31.801 146.057 31.221 145.777 30.6077C145.497 29.9943 145.144 29.411 144.717 28.8577H141.287V42.0277L143.577 42.4477V43.0977H135.967ZM156.581 43.3077C155.441 43.3077 154.428 43.131 153.541 42.7777C152.661 42.4243 151.971 41.921 151.471 41.2677C151.178 40.8943 150.964 40.4543 150.831 39.9477C150.704 39.441 150.641 38.7743 150.641 37.9477V28.8777L148.941 28.5077V27.8677H155.441V28.5077L153.691 28.8777V38.0377C153.691 39.3577 154.001 40.3743 154.621 41.0877C155.241 41.801 156.104 42.1577 157.211 42.1577C158.511 42.1577 159.458 41.7477 160.051 40.9277C160.344 40.521 160.558 39.9777 160.691 39.2977C160.824 38.6177 160.891 37.7177 160.891 36.5977V28.8777L159.141 28.5077V27.8677H163.851V28.5077L162.091 28.8777V37.6377C162.091 38.4177 162.018 39.111 161.871 39.7177C161.724 40.3243 161.511 40.8477 161.231 41.2877C160.798 41.9477 160.191 42.451 159.411 42.7977C158.631 43.1377 157.688 43.3077 156.581 43.3077ZM166.227 43.0977V42.4477L167.917 42.0277V28.9177L166.227 28.5077V27.8677H173.027C174.067 27.8677 174.984 28.0343 175.777 28.3677C176.571 28.6943 177.191 29.181 177.637 29.8277C178.084 30.4677 178.307 31.2577 178.307 32.1977C178.307 33.1643 178.051 33.971 177.537 34.6177C177.031 35.2577 176.314 35.7243 175.387 36.0177L179.317 42.0577L181.247 42.4477V43.0977H176.167L172.047 36.3777H170.937V42.0277L173.187 42.4477V43.0977H166.227ZM170.937 35.3977H171.507C172.254 35.3977 172.851 35.301 173.297 35.1077C173.751 34.9143 174.117 34.6543 174.397 34.3277C174.691 34.001 174.897 33.6377 175.017 33.2377C175.137 32.831 175.197 32.4177 175.197 31.9977C175.197 31.2577 175.037 30.6443 174.717 30.1577C174.397 29.6643 173.974 29.311 173.447 29.0977C173.221 29.0043 172.974 28.941 172.707 28.9077C172.441 28.8677 172.101 28.8477 171.687 28.8477H170.937V35.3977ZM182.364 43.0977V42.4477L184.054 42.0577V28.8777L182.364 28.5077V27.8677H194.154L194.514 32.2177H193.794C193.627 31.6843 193.421 31.1277 193.174 30.5477C192.927 29.9677 192.634 29.411 192.294 28.8777H187.074V42.0677H192.184C192.604 41.4677 192.944 40.8677 193.204 40.2677C193.464 39.6677 193.714 39.0677 193.954 38.4677H194.874L194.064 43.0977H182.364ZM190.684 37.8177C190.611 37.4443 190.507 37.0677 190.374 36.6877C190.241 36.301 190.071 35.921 189.864 35.5477H186.764V34.5577H189.864C190.077 34.1777 190.247 33.7977 190.374 33.4177C190.507 33.031 190.611 32.651 190.684 32.2777H191.414V37.8177H190.684ZM203.012 43.2777C202.419 43.2777 201.842 43.1977 201.282 43.0377C200.729 42.8777 200.132 42.6277 199.492 42.2877L198.772 43.0977H198.222L197.842 38.0277L198.572 37.9077C198.992 39.421 199.546 40.5177 200.232 41.1977C200.919 41.8777 201.832 42.2177 202.972 42.2177C203.826 42.2177 204.506 42.011 205.012 41.5977C205.519 41.1843 205.772 40.621 205.772 39.9077C205.772 39.4277 205.596 38.991 205.242 38.5977C204.889 38.1977 204.289 37.7843 203.442 37.3577L201.862 36.5477C200.576 35.8943 199.636 35.1943 199.042 34.4477C198.456 33.701 198.162 32.831 198.162 31.8377C198.162 31.031 198.376 30.3143 198.802 29.6877C199.236 29.0543 199.819 28.5577 200.552 28.1977C201.292 27.8377 202.126 27.6577 203.052 27.6577C204.346 27.6577 205.459 28.0677 206.392 28.8877L206.912 27.8377H207.492L207.682 32.2177H206.912C206.586 31.051 206.112 30.181 205.492 29.6077C204.879 29.0277 204.099 28.7377 203.152 28.7377C202.452 28.7377 201.902 28.9143 201.502 29.2677C201.109 29.621 200.912 30.1077 200.912 30.7277C200.912 31.2343 201.092 31.6877 201.452 32.0877C201.819 32.4877 202.446 32.9177 203.332 33.3777L204.882 34.1777C206.056 34.7843 206.902 35.4543 207.422 36.1877C207.942 36.921 208.202 37.7877 208.202 38.7877C208.202 39.6343 207.972 40.3977 207.512 41.0777C207.059 41.7577 206.439 42.2943 205.652 42.6877C204.872 43.081 203.992 43.2777 203.012 43.2777Z" fill="#FBF8F8" fill-opacity="0.7"/>
<path d="M41.2383 0.597656L20.7847 59.5977H0L10.4703 29.3949L20.4536 0.597656H41.2383Z" fill="url(#paint0_linear_82_233)"/>
<path d="M61.9352 59.5975H41.1602L37.4688 48.9601V48.9515L32.4333 34.4271L42.8257 4.4585L61.9352 59.5975Z" fill="#FBF8F8" fill-opacity="0.7"/>
<g style="mix-blend-mode:screen" opacity="0.4">
<g style="mix-blend-mode:screen" opacity="0.4">
<path d="M38.5988 2.33301L2.6394 57.8624L21.895 2.33301H38.5988Z" fill="#FBF8F8" fill-opacity="0.7"/>
</g>
</g>
<g style="mix-blend-mode:multiply" opacity="0.3">
<g style="mix-blend-mode:multiply" opacity="0.3">
<path d="M42.8257 4.4585L37.4688 48.9558L32.4314 34.4271L42.8257 4.4585Z" fill="#FBF8F8" fill-opacity="0.7"/>
</g>
</g>
<g style="mix-blend-mode:multiply" opacity="0.3">
<g style="mix-blend-mode:multiply" opacity="0.3">
<path d="M41.2383 0.597656L20.7847 59.5977H0C3.46737 59.4155 6.925 59.3374 10.3924 59.1985L15.5837 59.0597L20.2296 58.9634C21.7685 54.1653 23.356 49.3762 24.9923 44.596L27.5247 37.221L30.1155 29.8547C31.8784 24.9525 33.6608 20.059 35.5016 15.1741C36.4366 12.7447 37.3521 10.298 38.3164 7.87722C39.2806 5.45648 40.2254 3.00885 41.2383 0.597656Z" fill="#FBF8F8" fill-opacity="0.7"/>
</g>
</g>
<g style="mix-blend-mode:multiply" opacity="0.3">
<g style="mix-blend-mode:multiply" opacity="0.3">
<path d="M35.8815 0.597656C33.3102 0.831053 30.7389 0.979421 28.1676 1.09222C26.8819 1.16047 25.5963 1.21253 24.3106 1.24839C23.2392 1.2831 22.1776 1.3178 21.1062 1.34296L20.103 4.44133L18.8855 8.05074L17.6194 11.6419C17.2005 12.8488 16.7623 14.0366 16.3142 15.2253C15.8662 16.414 15.4279 17.6113 14.9506 18.8C14.4734 19.9887 14.0351 21.1782 13.5384 22.3496C12.5839 24.7182 11.5709 27.0696 10.4703 29.3949L20.4536 0.597656H35.8815Z" fill="#FBF8F8" fill-opacity="0.7"/>
</g>
</g>
<g style="mix-blend-mode:multiply" opacity="0.3">
<g style="mix-blend-mode:multiply" opacity="0.3">
<path d="M51.5428 59.1888C54.6693 59.0942 57.786 59.0153 60.9125 58.9554C60.1625 56.9512 59.432 54.9468 58.7015 52.934C57.8639 50.652 57.0458 48.3611 56.2471 46.0613C54.6206 41.481 53.0524 36.8738 51.4941 32.2753L49.2052 25.3505L46.9846 18.4093C46.2638 16.0927 45.5333 13.7771 44.8613 11.4518C44.1697 9.11776 43.4587 6.80028 42.8257 4.4585L61.9351 59.5975H41.1602C44.6178 59.4013 48.0851 59.3199 51.5428 59.1888Z" fill="#FBF8F8" fill-opacity="0.7"/>
</g>
</g>
<defs>
<linearGradient id="paint0_linear_82_233" x1="26.8087" y1="72.033" x2="21.7045" y2="59.9078" gradientUnits="userSpaceOnUse">
<stop offset="0.0001"/>
<stop offset="0.0002" stop-color="#009BBC" stop-opacity="0"/>
<stop offset="0.238" stop-color="#00EFFC"/>
<stop offset="0.44" stop-color="#00E5F4"/>
<stop offset="0.629" stop-color="#00D3E7"/>
<stop offset="0.81" stop-color="#00BAD4"/>
<stop offset="0.983" stop-color="#009BBC"/>
<stop offset="1" stop-color="#1A1A1A"/>
</linearGradient>
</defs>
</svg>
