<svg width="91" height="80" viewBox="0 0 91 80" fill="none" xmlns="http://www.w3.org/2000/svg">
<path d="M78.3476 11.6781L73.9777 33.8109C73.9687 33.8552 73.9721 33.901 73.9871 33.9436C74.0017 33.9862 74.028 34.024 74.0625 34.0531C74.097 34.0822 74.1386 34.1015 74.1829 34.109C74.2276 34.1165 74.2733 34.1119 74.3154 34.0957L78.9873 32.3349C78.9986 32.3998 79.0098 32.467 79.0203 32.5293C80.1422 39.5984 79.3201 46.8393 76.6423 53.4769C73.9642 60.1145 69.5312 65.8986 63.8181 70.2099C58.1046 74.521 51.3263 77.1969 44.2084 77.951C37.0909 78.7052 29.9023 77.509 23.4124 74.4906C30.2175 78.2647 37.9458 80.0514 45.7167 79.6469C53.4878 79.2424 60.9891 76.6637 67.3656 72.2038C73.7424 67.7438 78.7382 61.5827 81.7837 54.4217C84.8291 47.261 85.8024 39.3886 84.5916 31.702L89.9723 32.1387C90.0181 32.1423 90.0635 32.1334 90.1048 32.1131C90.1457 32.0927 90.1802 32.0616 90.205 32.0231C90.2297 31.9846 90.2432 31.9401 90.2447 31.8943C90.2459 31.8486 90.235 31.8034 90.2125 31.7635L78.8147 11.6015C78.7892 11.5568 78.7506 11.5209 78.704 11.4987C78.6575 11.4765 78.6054 11.4691 78.5547 11.4774C78.5037 11.4858 78.4568 11.5095 78.4197 11.5453C78.3825 11.5812 78.3574 11.6275 78.3476 11.6781Z" fill="#FBF8F8" fill-opacity="0.7"/>
<path d="M70.0013 57.8534C66.4715 62.343 61.938 65.9426 56.7655 68.3634C51.5926 70.7842 45.9245 71.9589 40.2159 71.7931C34.5071 71.6272 28.9167 70.1257 23.8932 67.4089C18.8697 64.6917 14.553 60.8351 11.2896 56.1481C8.02605 51.4615 5.9066 46.0748 5.10124 40.4206C4.29593 34.7666 4.82712 29.0024 6.65227 23.5908C8.47738 18.1791 11.5456 13.2706 15.6107 9.25908C19.6758 5.24759 24.6246 2.2448 30.0601 0.491699C23.056 2.21312 16.6768 5.8685 11.6501 11.0409C6.62345 16.2132 3.15179 22.6943 1.63114 29.7446C0.110496 36.795 0.6021 44.1309 3.04988 50.9152C5.49767 57.6999 9.80306 63.6595 15.4749 68.115C21.1468 72.5705 27.9567 75.3421 35.1278 76.1135C42.299 76.8849 49.5426 75.6253 56.0324 72.4782C62.5221 69.331 67.9966 64.4234 71.8315 58.3148C75.666 52.2063 77.7067 45.1428 77.7206 37.9304C77.2055 45.1957 74.5157 52.1376 70.0013 57.8534Z" fill="#FBF8F8" fill-opacity="0.7"/>
<path d="M19.9684 36.5781C19.9584 35.9881 19.8984 35.4981 19.7884 35.1081C19.6784 34.7181 19.4834 34.4281 19.2034 34.2381C18.9334 34.0381 18.5384 33.9431 18.0184 33.9531H16.7434L16.7284 42.1281C16.7284 42.3981 16.7234 42.6331 16.7134 42.8331C16.7134 43.0231 16.7034 43.1831 16.6834 43.3131C16.8934 43.3031 17.0984 43.2931 17.2984 43.2831C17.5084 43.2731 17.7184 43.2631 17.9284 43.2531V43.9131H14.4034V43.4181C14.7834 43.3981 15.0384 43.3081 15.1684 43.1481C15.3084 42.9881 15.3834 42.7731 15.3934 42.5031C15.4134 42.2231 15.4234 41.9131 15.4234 41.5731L15.4384 33.9681L13.8934 33.9831C13.2634 33.9831 12.8184 34.1931 12.5584 34.6131C12.2984 35.0331 12.1684 35.6881 12.1684 36.5781H11.6134L11.7034 33.4131H20.4484L20.5384 36.5781H19.9684ZM21.7032 43.9131V43.4181C22.0832 43.3981 22.3432 43.3131 22.4832 43.1631C22.6232 43.0031 22.6982 42.7881 22.7082 42.5181C22.7282 42.2381 22.7382 41.9231 22.7382 41.5731V35.0931C22.7382 34.8931 22.7432 34.7031 22.7532 34.5231C22.7632 34.3331 22.7732 34.1631 22.7832 34.0131C22.6032 34.0231 22.4232 34.0331 22.2432 34.0431C22.0632 34.0531 21.8832 34.0631 21.7032 34.0731V33.4131C22.2632 33.4031 22.8282 33.3931 23.3982 33.3831C23.9782 33.3731 24.5582 33.3781 25.1382 33.3981C26.1082 33.4081 26.8882 33.5231 27.4782 33.7431C28.0782 33.9531 28.5182 34.2581 28.7982 34.6581C29.0782 35.0481 29.2182 35.5231 29.2182 36.0831C29.2282 36.4731 29.1532 36.8731 28.9932 37.2831C28.8432 37.6831 28.5632 38.0431 28.1532 38.3631C27.7532 38.6831 27.1732 38.9231 26.4132 39.0831C26.6132 39.2231 26.7882 39.4031 26.9382 39.6231C27.0882 39.8431 27.2582 40.0981 27.4482 40.3881L28.4682 41.9931C28.6382 42.2631 28.8032 42.5081 28.9632 42.7281C29.1232 42.9381 29.3082 43.1081 29.5182 43.2381C29.7282 43.3581 29.9882 43.4181 30.2982 43.4181V43.9131H28.4082C28.1182 43.6531 27.8732 43.3931 27.6732 43.1331C27.4832 42.8731 27.2832 42.5781 27.0732 42.2481L26.0682 40.6431C25.9382 40.4331 25.7882 40.1931 25.6182 39.9231C25.4582 39.6431 25.2732 39.4081 25.0632 39.2181C24.9032 39.2281 24.7332 39.2331 24.5532 39.2331C24.3832 39.2331 24.2132 39.2281 24.0432 39.2181V42.1281C24.0432 42.3981 24.0382 42.6331 24.0282 42.8331C24.0282 43.0231 24.0182 43.1831 23.9982 43.3131C24.1182 43.3031 24.2382 43.2981 24.3582 43.2981C24.4782 43.2881 24.5982 43.2781 24.7182 43.2681C24.8382 43.2581 24.9582 43.2531 25.0782 43.2531V43.9131H21.7032ZM24.9732 38.6631C25.5232 38.6431 26.0032 38.5531 26.4132 38.3931C26.8332 38.2331 27.1632 37.9781 27.4032 37.6281C27.6432 37.2781 27.7632 36.8181 27.7632 36.2481C27.7632 35.8681 27.7082 35.5381 27.5982 35.2581C27.4982 34.9681 27.3382 34.7281 27.1182 34.5381C26.8982 34.3481 26.6182 34.2081 26.2782 34.1181C25.9382 34.0181 25.5382 33.9681 25.0782 33.9681C24.7082 33.9681 24.4482 34.0431 24.2982 34.1931C24.1582 34.3431 24.0782 34.5531 24.0582 34.8231C24.0482 35.0831 24.0432 35.3931 24.0432 35.7531V38.6331C24.2032 38.6431 24.3532 38.6531 24.4932 38.6631C24.6432 38.6731 24.8032 38.6731 24.9732 38.6631ZM30.9395 43.9131V43.4181C31.2395 43.4181 31.4695 43.3381 31.6295 43.1781C31.7895 43.0181 31.9195 42.7981 32.0195 42.5181C32.1295 42.2381 32.2545 41.9131 32.3945 41.5431L35.4845 33.1281H35.8445L39.1895 41.6631C39.2695 41.8731 39.3595 42.1431 39.4595 42.4731C39.5595 42.8031 39.5995 43.0831 39.5795 43.3131C39.7495 43.3031 39.9195 43.2931 40.0895 43.2831C40.2595 43.2731 40.4295 43.2631 40.5995 43.2531V43.9131H37.1645V43.4181C37.5445 43.4081 37.7945 43.3231 37.9145 43.1631C38.0345 43.0031 38.0795 42.8131 38.0495 42.5931C38.0195 42.3731 37.9695 42.1731 37.8995 41.9931L37.3745 40.5831L33.4745 40.6731L32.9495 42.2781C32.8795 42.5181 32.8145 42.7081 32.7545 42.8481C32.7045 42.9881 32.6445 43.1431 32.5745 43.3131C32.7745 43.3031 32.9695 43.2931 33.1595 43.2831C33.3595 43.2731 33.5545 43.2631 33.7445 43.2531V43.9131H30.9395ZM33.6995 40.0281H37.1645L36.0995 37.1631C35.9895 36.8531 35.8745 36.5481 35.7545 36.2481C35.6445 35.9381 35.5345 35.6281 35.4245 35.3181H35.3945C35.2945 35.5981 35.1895 35.8781 35.0795 36.1581C34.9795 36.4381 34.8745 36.7231 34.7645 37.0131L33.6995 40.0281ZM44.6633 44.0631L41.2583 36.0831C41.0383 35.5731 40.8833 35.1631 40.7933 34.8531C40.7033 34.5331 40.6433 34.2631 40.6133 34.0431C40.4733 34.0531 40.3333 34.0581 40.1933 34.0581C40.0533 34.0581 39.9133 34.0631 39.7733 34.0731V33.4131H43.2533L43.2383 33.9231C42.7383 33.9531 42.4383 34.1081 42.3383 34.3881C42.2383 34.6581 42.2883 35.0431 42.4883 35.5431C42.7283 36.1331 42.9583 36.7031 43.1783 37.2531C43.3983 37.8031 43.6433 38.3981 43.9133 39.0381C44.1533 39.5981 44.3833 40.1381 44.6033 40.6581C44.8333 41.1681 45.0083 41.5931 45.1283 41.9331H45.1583C45.2683 41.5831 45.3783 41.2481 45.4883 40.9281C45.6083 40.6081 45.7483 40.2281 45.9083 39.7881C46.2083 38.9481 46.4583 38.2381 46.6583 37.6581C46.8683 37.0781 47.0483 36.5831 47.1983 36.1731C47.3483 35.7631 47.4733 35.4131 47.5733 35.1231C47.6633 34.8631 47.7433 34.6431 47.8133 34.4631C47.8833 34.2831 47.9483 34.1331 48.0083 34.0131C47.8183 34.0231 47.6283 34.0331 47.4383 34.0431C47.2483 34.0531 47.0533 34.0631 46.8533 34.0731V33.4131H49.8983V33.9081C49.4583 33.9281 49.1183 34.0431 48.8783 34.2531C48.6483 34.4631 48.4383 34.8381 48.2483 35.3781C48.2283 35.4281 48.2033 35.4981 48.1733 35.5881C48.1433 35.6681 48.0933 35.8031 48.0233 35.9931C47.9533 36.1831 47.8533 36.4631 47.7233 36.8331C47.5933 37.1931 47.4133 37.6831 47.1833 38.3031C46.9633 38.9231 46.6783 39.7031 46.3283 40.6431C45.9883 41.5831 45.5733 42.7231 45.0833 44.0631H44.6633ZM55.6781 40.0281C55.6781 39.5881 55.6181 39.2731 55.4981 39.0831C55.3781 38.8931 55.1881 38.7781 54.9281 38.7381C54.6681 38.6981 54.3231 38.6881 53.8931 38.7081L52.7981 38.7531V42.1881C52.7981 42.4581 52.7931 42.6881 52.7831 42.8781C52.7831 43.0681 52.7731 43.2281 52.7531 43.3581L55.6181 43.3131C56.0581 43.3031 56.4381 43.2331 56.7581 43.1031C57.0781 42.9631 57.3281 42.7231 57.5081 42.3831C57.6881 42.0431 57.7781 41.5781 57.7781 40.9881H58.2881L58.1981 43.9131H50.4581V43.4181C50.8381 43.3981 51.0981 43.3131 51.2381 43.1631C51.3781 43.0031 51.4531 42.7881 51.4631 42.5181C51.4831 42.2381 51.4931 41.9231 51.4931 41.5731V35.0931C51.4931 34.8931 51.4981 34.7031 51.5081 34.5231C51.5181 34.3331 51.5281 34.1631 51.5381 34.0131C51.3581 34.0231 51.1781 34.0331 50.9981 34.0431C50.8181 34.0531 50.6381 34.0631 50.4581 34.0731V33.4131H57.6731L57.7481 36.0381H57.2531C57.2531 35.4481 57.1631 35.0031 56.9831 34.7031C56.8031 34.3931 56.5581 34.1881 56.2481 34.0881C55.9481 33.9781 55.6081 33.9281 55.2281 33.9381L53.9381 33.9681C53.5681 33.9781 53.3031 34.0481 53.1431 34.1781C52.9831 34.3081 52.8831 34.5031 52.8431 34.7631C52.8131 35.0131 52.7981 35.3431 52.7981 35.7531V38.1531L55.6181 38.1681L55.5131 36.8781H56.1731V40.0281H55.6781ZM59.7891 43.9131V43.4181C60.1691 43.3981 60.4291 43.3131 60.5691 43.1631C60.7091 43.0031 60.7841 42.7881 60.7941 42.5181C60.8141 42.2381 60.8241 41.9231 60.8241 41.5731V35.0931C60.8241 34.8931 60.8291 34.7031 60.8391 34.5231C60.8491 34.3331 60.8591 34.1631 60.8691 34.0131C60.6891 34.0231 60.5091 34.0331 60.3291 34.0431C60.1491 34.0531 59.9691 34.0631 59.7891 34.0731V33.4131H63.1641V33.9081C62.7941 33.9181 62.5341 34.0031 62.3841 34.1631C62.2441 34.3231 62.1641 34.5381 62.1441 34.8081C62.1341 35.0781 62.1291 35.3931 62.1291 35.7531V42.1881C62.1291 42.4581 62.1241 42.6881 62.1141 42.8781C62.1141 43.0681 62.1041 43.2281 62.0841 43.3581L64.8891 43.3131C65.5191 43.3031 65.9941 43.1031 66.3141 42.7131C66.6441 42.3231 66.8091 41.6881 66.8091 40.8081H67.3191L67.2291 43.9131H59.7891Z" fill="#FBF8F8" fill-opacity="0.7"/>
</svg>
