<svg width="102" height="78" viewBox="0 0 102 78" fill="none" xmlns="http://www.w3.org/2000/svg">
<path d="M1.32087 75.8613V64.9522H3.29707V69.5705H8.35212V64.9522H10.3337V75.8613H8.35212V71.2271H3.29707V75.8613H1.32087ZM14.9092 64.9522V75.8613H12.933V64.9522H14.9092ZM17.4992 75.8613V64.9522H19.4754V69.9647H19.6086L23.8646 64.9522H26.2776L22.0588 69.8475L26.3149 75.8613H23.9392L20.6846 71.1845L19.4754 72.612V75.8613H17.4992ZM30.0768 64.9522V75.8613H28.1006V64.9522H30.0768ZM41.6316 64.9522V75.8613H39.8738L34.7335 68.4306H34.643V75.8613H32.6668V64.9522H34.4352L39.5702 72.3883H39.6661V64.9522H41.6316ZM51.5432 68.4359C51.4544 68.1483 51.3319 67.8908 51.1756 67.6635C51.0229 67.4327 50.8383 67.2356 50.6216 67.0723C50.4086 66.9089 50.1636 66.7864 49.8866 66.7047C49.6096 66.6195 49.3077 66.5769 48.981 66.5769C48.3951 66.5769 47.8731 66.7243 47.415 67.019C46.9569 67.3137 46.5964 67.747 46.3337 68.3187C46.0744 68.8869 45.9448 69.5794 45.9448 70.3961C45.9448 71.22 46.0744 71.9178 46.3337 72.4895C46.5929 73.0613 46.9533 73.4963 47.415 73.7946C47.8766 74.0893 48.4128 74.2367 49.0236 74.2367C49.5776 74.2367 50.057 74.1301 50.4618 73.9171C50.8702 73.704 51.1845 73.4022 51.4047 73.0115C51.6248 72.6174 51.7349 72.1557 51.7349 71.6266L52.1824 71.6958H49.2207V70.1511H53.6472V71.4615C53.6472 72.3954 53.4484 73.2033 53.0506 73.8851C52.6529 74.5669 52.106 75.0925 51.41 75.4618C50.714 75.8276 49.915 76.0105 49.013 76.0105C48.008 76.0105 47.1256 75.785 46.3656 75.334C45.6092 74.8794 45.018 74.2349 44.5918 73.4004C44.1692 72.5623 43.9579 71.568 43.9579 70.4174C43.9579 69.5368 44.0822 68.7502 44.3308 68.0577C44.5829 67.3652 44.9345 66.7775 45.3855 66.2946C45.8365 65.8081 46.3656 65.4387 46.9729 65.1866C47.5801 64.9309 48.2406 64.8031 48.9544 64.8031C49.5581 64.8031 50.1209 64.8919 50.643 65.0694C51.165 65.2434 51.6284 65.492 52.0332 65.8152C52.4416 66.1383 52.7772 66.5218 53.04 66.9657C53.3028 67.4096 53.475 67.8997 53.5567 68.4359H51.5432ZM69.5166 68.633H67.5244C67.4676 68.3063 67.3628 68.0169 67.2101 67.7647C67.0574 67.5091 66.8674 67.2924 66.6402 67.1149C66.4129 66.9373 66.1537 66.8042 65.8625 66.7154C65.5748 66.623 65.2641 66.5769 64.9303 66.5769C64.3373 66.5769 63.8117 66.726 63.3536 67.0243C62.8955 67.3191 62.5368 67.7523 62.2776 68.324C62.0184 68.8922 61.8887 69.5865 61.8887 70.4068C61.8887 71.2413 62.0184 71.9444 62.2776 72.5162C62.5404 73.0843 62.899 73.514 63.3536 73.8052C63.8117 74.0929 64.3355 74.2367 64.925 74.2367C65.2517 74.2367 65.5571 74.1941 65.8412 74.1088C66.1288 74.0201 66.3863 73.8904 66.6135 73.72C66.8444 73.5495 67.0379 73.34 67.1941 73.0914C67.3539 72.8429 67.464 72.5588 67.5244 72.2392L69.5166 72.2498C69.442 72.7683 69.2804 73.2548 69.0319 73.7093C68.7868 74.1639 68.4655 74.5652 68.0677 74.9132C67.67 75.2576 67.2048 75.5275 66.6721 75.7228C66.1395 75.9146 65.5482 76.0105 64.8983 76.0105C63.9395 76.0105 63.0837 75.7885 62.3309 75.3446C61.578 74.9007 60.985 74.2598 60.5517 73.4217C60.1185 72.5836 59.9019 71.5787 59.9019 70.4068C59.9019 69.2314 60.1203 68.2264 60.5571 67.3919C60.9939 66.5538 61.5887 65.9128 62.3415 65.4689C63.0944 65.025 63.9466 64.8031 64.8983 64.8031C65.5056 64.8031 66.0702 64.8883 66.5922 65.0588C67.1142 65.2292 67.5794 65.4796 67.9878 65.8098C68.3962 66.1365 68.7318 66.5378 68.9946 67.0137C69.2609 67.486 69.4349 68.0257 69.5166 68.633ZM71.7763 75.8613V64.9522H73.7525V74.2047H78.5572V75.8613H71.7763ZM87.5992 64.9522H89.5754V72.0794C89.5754 72.8606 89.3908 73.5478 89.0214 74.1408C88.6557 74.7338 88.1408 75.1973 87.4767 75.5311C86.8126 75.8613 86.0367 76.0265 85.1489 76.0265C84.2576 76.0265 83.4799 75.8613 82.8158 75.5311C82.1518 75.1973 81.6369 74.7338 81.2711 74.1408C80.9053 73.5478 80.7224 72.8606 80.7224 72.0794V64.9522H82.6986V71.9142C82.6986 72.3688 82.7981 72.7736 82.9969 73.1287C83.1994 73.4838 83.4834 73.7626 83.8492 73.965C84.215 74.1639 84.6482 74.2633 85.1489 74.2633C85.6496 74.2633 86.0829 74.1639 86.4486 73.965C86.818 73.7626 87.102 73.4838 87.3009 73.1287C87.4998 72.7736 87.5992 72.3688 87.5992 71.9142V64.9522ZM92.1734 75.8613V64.9522H96.3495C97.1379 64.9522 97.7931 65.0765 98.3151 65.3251C98.8407 65.5701 99.2331 65.9057 99.4923 66.3319C99.7551 66.758 99.8865 67.2409 99.8865 67.7807C99.8865 68.2246 99.8012 68.6046 99.6308 68.9206C99.4603 69.2331 99.2313 69.487 98.9436 69.6824C98.656 69.8777 98.3346 70.0179 97.9795 70.1032V70.2097C98.3666 70.231 98.7377 70.35 99.0928 70.5666C99.4515 70.7797 99.7444 71.0815 99.9717 71.4721C100.199 71.8627 100.313 72.335 100.313 72.889C100.313 73.4537 100.176 73.9615 99.9025 74.4125C99.629 74.8599 99.2171 75.2132 98.6667 75.4725C98.1162 75.7317 97.4238 75.8613 96.5892 75.8613H92.1734ZM94.1496 74.21H96.275C96.9923 74.21 97.509 74.0733 97.825 73.7999C98.1446 73.5229 98.3044 73.1678 98.3044 72.7346C98.3044 72.4114 98.2245 72.1202 98.0647 71.861C97.9049 71.5982 97.6777 71.3922 97.3829 71.2431C97.0882 71.0904 96.7366 71.014 96.3282 71.014H94.1496V74.21ZM94.1496 69.5918H96.1045C96.4454 69.5918 96.7526 69.5297 97.026 69.4054C97.2995 69.2775 97.5143 69.0982 97.6706 68.8674C97.8304 68.633 97.9103 68.356 97.9103 68.0364C97.9103 67.6138 97.7611 67.2658 97.4628 66.9924C97.1681 66.7189 96.7295 66.5822 96.1471 66.5822H94.1496V69.5918Z" fill="#FBF8F8" fill-opacity="0.7"/>
<path d="M16.7862 52.6975L19.1123 49.8307L21.718 57.3334L22.884 54.8708L24.1408 56.1475L27.8188 47.4785L28.4911 49.8382L30.2372 47.4785C30.2372 47.4785 31.5891 54.0862 31.9773 53.3956C32.3655 52.705 33.3322 50.3438 33.3322 50.3438L34.4967 48.3779L35.6553 50.76L36.3291 49.8382L37.1396 49.2788C34.0342 43.9643 30.9213 38.6438 27.8129 33.3353C27.2209 32.3344 25.6742 32.3344 25.0763 33.3353C21.6957 39.1152 18.3106 44.8995 14.9301 50.6839C15.5659 51.3416 16.1848 52.0155 16.7862 52.705V52.6975ZM81.071 44.2701L78.7493 40.8335L76.1376 49.8128L74.9761 46.8639L73.7178 48.3988L70.0368 38.001L69.3601 40.832L67.62 38.001C67.62 38.001 66.2636 45.9198 65.8813 45.0904C65.4932 44.2686 64.522 41.4376 64.522 41.4376L63.3619 39.0764L62.2063 41.9372L61.5266 40.8305L60.719 40.1548L70.0457 21.0417C70.6362 19.8409 72.1844 19.8409 72.7823 21.0417C76.1599 27.9715 79.5465 34.9074 82.9301 41.8388C82.292 42.6344 81.6721 43.4445 81.071 44.2686" fill="#FBF8F8" fill-opacity="0.7"/>
<path d="M35.6485 38.5527L40.0583 33.1144L45.0169 47.3396L47.227 42.665L49.6126 45.0948L56.5999 28.6277L57.8834 33.1174L61.1926 28.6277C61.1926 28.6277 63.7641 41.1749 64.5003 39.8668C65.2365 38.5557 67.0748 34.072 67.0748 34.072L69.2789 30.3341L71.4816 34.8685L72.7636 33.1159L74.3 32.0434C68.3955 21.9469 62.4895 11.8474 56.5865 1.75982C55.4561 -0.141946 52.5217 -0.141946 51.381 1.75982C44.9589 12.7394 38.5324 23.7293 32.1073 34.7089C33.3211 35.9588 34.5019 37.2405 35.6485 38.5527Z" fill="#FBF8F8" fill-opacity="0.7"/>
<line x1="10.7449" y1="59.0977" x2="90.7449" y2="59.0977" stroke="#FBF8F8" stroke-opacity="0.7" stroke-width="2"/>
</svg>
