<svg width="163" height="81" viewBox="0 0 163 81" fill="none" xmlns="http://www.w3.org/2000/svg">
<path d="M89.2507 30.9717C88.9459 31.4021 88.2573 32.5615 88.0848 34.4201C91.0173 34.1037 93.2282 32.6842 93.2282 30.9779H89.3987C89.3484 30.9771 89.301 30.9717 89.2507 30.9717Z" fill="#FBF8F8" fill-opacity="0.7"/>
<path d="M102.162 32.2955C102.867 32.2955 103.439 31.7058 103.439 30.9783C103.439 30.2509 102.867 29.6611 102.162 29.6611C101.457 29.6611 100.886 30.2509 100.886 30.9783C100.886 31.7058 101.457 32.2955 102.162 32.2955Z" fill="#FBF8F8" fill-opacity="0.7"/>
<path d="M107.27 31.417C107.975 31.417 108.548 30.8276 108.548 30.1006C108.548 29.3736 107.975 28.7842 107.27 28.7842C106.564 28.7842 105.992 29.3736 105.992 30.1006C105.992 30.8276 106.564 31.417 107.27 31.417Z" fill="#FBF8F8" fill-opacity="0.7"/>
<path d="M112.374 30.5392C113.079 30.5392 113.649 29.9494 113.649 29.222C113.649 28.4945 113.079 27.9048 112.374 27.9048C111.67 27.9048 111.099 28.4945 111.099 29.222C111.099 29.9494 111.67 30.5392 112.374 30.5392Z" fill="#FBF8F8" fill-opacity="0.7"/>
<path d="M150.666 37.2312L125.588 31.1398C125.816 30.9711 126.046 30.8023 126.276 30.6305C126.894 30.1695 127.55 29.6844 128.279 29.2078C131.609 29.0586 138.049 27.7492 140.332 26.5172C140.544 26.4031 140.689 26.1727 140.782 25.8844L159.129 20.0445L144.569 22.2711L146.051 18.3648L150.872 17.3664L146.309 17.6812L146.881 16.1742L149.246 16.4945L154.496 14.4602L147.942 13.3773L147.978 13.2789L148.962 10.6898L144.635 11.682L143.618 11.9148L139.181 9.47266L134.073 10.35L136.692 13.5023L136.186 13.6172L135.76 14.0359L130.976 18.7391L128.594 18.9039C128.472 18.8459 128.318 18.812 128.157 18.8078C128.157 18.8078 119.799 19.4047 116.668 20.9984C116.07 21.3031 115.448 21.7555 115.402 22.65C111.661 23.2604 107.926 23.8807 104.196 24.5109L91.9503 19.1281V14.7391L89.3973 15.6172L86.8443 20.0055L92.6863 26.5344C92.1372 26.6375 91.6139 26.7367 91.1395 26.8305C84.0829 28.2125 82.6008 29.7625 80.8859 31.5578C79.8681 32.6227 78.8159 33.7234 76.1852 35.1664C74.3668 36.1648 72.0769 37.6664 73.155 39.1812C73.8824 40.2031 75.7784 40.7227 78.7885 40.7227C84.3689 40.7227 95.0582 39.0656 109.998 35.9023L149.39 40.1945L154.496 38.1609V33.1711L152.018 34.0922L150.666 37.2312ZM149.866 22.1883L140.899 25.0422C140.902 24.5579 140.802 24.0751 140.602 23.6031L149.866 22.1883ZM130.202 19.5008L129.427 20.2625C129.423 20.0274 129.367 19.7934 129.259 19.5656L130.202 19.5008ZM121.308 30.1008L101.724 35.0008L105.273 35.3875C91.8109 38.1328 83.16 39.3164 78.7885 39.3164C74.4358 39.3164 74.3194 38.1445 77.9045 36.1758C79.9457 35.0562 81.1518 34.0945 82.0502 33.2461L82.0344 33.2609C83.2031 34.0063 84.9137 34.4875 86.8457 34.4875L86.8774 34.4859C87.001 32.7953 87.5156 31.5836 87.9282 30.8695C87.0223 30.7531 86.1751 30.5293 85.447 30.2141C84.3172 30.8719 83.6689 31.5922 82.8682 32.425C84.5615 30.6609 85.5549 29.4086 91.9445 28.157C102.096 26.1688 130.907 21.6109 130.907 21.6109L137.799 14.8359L137.9 14.957L144.472 15.8469L141.879 22.6797L140.101 22.9516C139.967 22.8641 139.82 22.8172 139.658 22.8281C136.434 23.0578 130.577 24.0938 127.688 25.7109C127.093 26.0438 126.41 26.4961 126.41 27.4656C126.41 27.7297 126.456 27.9773 126.532 28.2031C125.259 29.0273 124.225 29.8609 123.227 30.5656L121.308 30.1008ZM82.4642 32.8414L82.5275 32.7766C82.5074 32.7984 82.4872 32.8203 82.4642 32.8414Z" fill="#FBF8F8" fill-opacity="0.7"/>
<path d="M20.4329 72.0977V54.2177H13.7129V51.0977H30.5729V54.2177H23.6729V72.0977H20.4329ZM40.6824 72.3977C38.9424 72.3977 37.3924 72.0477 36.0324 71.3477C34.6924 70.6277 33.6324 69.6577 32.8524 68.4377C32.0724 67.1977 31.6824 65.7877 31.6824 64.2077C31.6824 62.6277 32.0724 61.2277 32.8524 60.0077C33.6324 58.7677 34.6924 57.7977 36.0324 57.0977C37.3924 56.3777 38.9424 56.0177 40.6824 56.0177C42.4024 56.0177 43.9324 56.3777 45.2724 57.0977C46.6324 57.7977 47.7024 58.7677 48.4824 60.0077C49.2624 61.2277 49.6524 62.6277 49.6524 64.2077C49.6524 65.7877 49.2624 67.1977 48.4824 68.4377C47.7024 69.6577 46.6324 70.6277 45.2724 71.3477C43.9324 72.0477 42.4024 72.3977 40.6824 72.3977ZM40.6824 69.5777C41.7824 69.5777 42.7724 69.3477 43.6524 68.8877C44.5524 68.4077 45.2524 67.7677 45.7524 66.9677C46.2724 66.1477 46.5224 65.2277 46.5024 64.2077C46.5224 63.1677 46.2724 62.2477 45.7524 61.4477C45.2524 60.6277 44.5524 59.9877 43.6524 59.5277C42.7724 59.0677 41.7824 58.8377 40.6824 58.8377C39.5824 58.8377 38.5824 59.0777 37.6824 59.5577C36.7824 60.0177 36.0724 60.6477 35.5524 61.4477C35.0524 62.2477 34.8124 63.1677 34.8324 64.2077C34.8124 65.2277 35.0524 66.1477 35.5524 66.9677C36.0724 67.7677 36.7824 68.4077 37.6824 68.8877C38.5824 69.3477 39.5824 69.5777 40.6824 69.5777ZM61.7417 72.3977C60.5217 72.3977 59.4517 72.1177 58.5317 71.5577C57.6117 70.9777 56.8917 70.1677 56.3717 69.1277C55.8717 68.0677 55.6217 66.8077 55.6217 65.3477V56.3477H58.7117V64.3877C58.7117 65.4877 58.8717 66.4277 59.1917 67.2077C59.5117 67.9677 59.9917 68.5477 60.6317 68.9477C61.2717 69.3477 62.0617 69.5477 63.0017 69.5477C63.6817 69.5477 64.3117 69.4377 64.8917 69.2177C65.4717 68.9977 65.9717 68.6877 66.3917 68.2877C66.8317 67.8877 67.1717 67.4077 67.4117 66.8477C67.6717 66.2877 67.8017 65.6677 67.8017 64.9877V56.3477H70.8917V72.0977H67.8017V68.7977L68.3417 68.4377C68.1017 69.1177 67.6717 69.7677 67.0517 70.3877C66.4317 70.9877 65.6717 71.4777 64.7717 71.8577C63.8717 72.2177 62.8617 72.3977 61.7417 72.3977ZM78.5082 72.0977V56.3477H81.6282V61.5977L81.0882 60.8177C81.3482 59.9377 81.7882 59.1377 82.4082 58.4177C83.0282 57.6777 83.7382 57.0977 84.5382 56.6777C85.3382 56.2377 86.1682 56.0177 87.0282 56.0177C87.5282 56.0177 88.0082 56.0677 88.4682 56.1677C88.9482 56.2677 89.3182 56.3977 89.5782 56.5577L88.7682 59.8577C88.4482 59.6777 88.0682 59.5377 87.6282 59.4377C87.2082 59.3377 86.7982 59.2877 86.3982 59.2877C85.7182 59.2877 85.0882 59.4177 84.5082 59.6777C83.9282 59.9177 83.4182 60.2477 82.9782 60.6677C82.5582 61.0877 82.2282 61.5677 81.9882 62.1077C81.7482 62.6277 81.6282 63.1777 81.6282 63.7577V72.0977H78.5082ZM95.4195 72.0977V56.3477H98.5095V72.0977H95.4195ZM96.9195 52.7477C96.2595 52.7477 95.7495 52.5777 95.3895 52.2377C95.0295 51.8977 94.8495 51.4177 94.8495 50.7977C94.8495 50.2177 95.0295 49.7477 95.3895 49.3877C95.7695 49.0277 96.2795 48.8477 96.9195 48.8477C97.5795 48.8477 98.0895 49.0177 98.4495 49.3577C98.8095 49.6977 98.9895 50.1777 98.9895 50.7977C98.9895 51.3777 98.7995 51.8477 98.4195 52.2077C98.0595 52.5677 97.5595 52.7477 96.9195 52.7477ZM112.095 72.3977C110.575 72.3977 109.185 72.1677 107.925 71.7077C106.685 71.2477 105.645 70.5277 104.805 69.5477L106.905 67.6877C107.585 68.4077 108.355 68.9477 109.215 69.3077C110.095 69.6677 111.065 69.8477 112.125 69.8477C112.545 69.8477 112.965 69.8077 113.385 69.7277C113.805 69.6477 114.185 69.5277 114.525 69.3677C114.865 69.2077 115.135 68.9977 115.335 68.7377C115.535 68.4777 115.635 68.1777 115.635 67.8377C115.635 67.2577 115.295 66.8077 114.615 66.4877C114.255 66.3477 113.815 66.1977 113.295 66.0377C112.775 65.8777 112.165 65.7277 111.465 65.5877C110.285 65.3277 109.265 65.0377 108.405 64.7177C107.545 64.3777 106.855 63.9677 106.335 63.4877C105.955 63.1077 105.665 62.6777 105.465 62.1977C105.285 61.7177 105.195 61.1677 105.195 60.5477C105.195 59.8877 105.355 59.2777 105.675 58.7177C106.015 58.1577 106.485 57.6777 107.085 57.2777C107.685 56.8777 108.385 56.5677 109.185 56.3477C109.985 56.1277 110.845 56.0177 111.765 56.0177C112.585 56.0177 113.415 56.1177 114.255 56.3177C115.115 56.4977 115.915 56.7777 116.655 57.1577C117.415 57.5177 118.045 57.9777 118.545 58.5377L116.835 60.5477C116.375 60.1677 115.855 59.8277 115.275 59.5277C114.715 59.2277 114.135 58.9977 113.535 58.8377C112.935 58.6577 112.375 58.5677 111.855 58.5677C111.415 58.5677 110.975 58.6077 110.535 58.6877C110.095 58.7477 109.705 58.8577 109.365 59.0177C109.045 59.1577 108.785 59.3477 108.585 59.5877C108.385 59.8277 108.285 60.1177 108.285 60.4577C108.285 60.7177 108.345 60.9577 108.465 61.1777C108.605 61.3777 108.785 61.5577 109.005 61.7177C109.345 61.9377 109.805 62.1377 110.385 62.3177C110.965 62.4977 111.655 62.6677 112.455 62.8277C113.495 63.0477 114.415 63.3077 115.215 63.6077C116.035 63.8877 116.715 64.2377 117.255 64.6577C117.715 64.9977 118.055 65.4077 118.275 65.8877C118.515 66.3677 118.635 66.9177 118.635 67.5377C118.635 68.5177 118.335 69.3777 117.735 70.1177C117.155 70.8377 116.375 71.3977 115.395 71.7977C114.415 72.1977 113.315 72.3977 112.095 72.3977ZM126.838 72.0977V51.9677H129.928V72.0977H126.838ZM122.848 59.3477V56.3477H134.548V59.3477H122.848ZM147.88 72.3977C146.14 72.3977 144.59 72.0477 143.23 71.3477C141.89 70.6277 140.83 69.6577 140.05 68.4377C139.27 67.1977 138.88 65.7877 138.88 64.2077C138.88 62.6277 139.27 61.2277 140.05 60.0077C140.83 58.7677 141.89 57.7977 143.23 57.0977C144.59 56.3777 146.14 56.0177 147.88 56.0177C149.6 56.0177 151.13 56.3777 152.47 57.0977C153.83 57.7977 154.9 58.7677 155.68 60.0077C156.46 61.2277 156.85 62.6277 156.85 64.2077C156.85 65.7877 156.46 67.1977 155.68 68.4377C154.9 69.6577 153.83 70.6277 152.47 71.3477C151.13 72.0477 149.6 72.3977 147.88 72.3977ZM147.88 69.5777C148.98 69.5777 149.97 69.3477 150.85 68.8877C151.75 68.4077 152.45 67.7677 152.95 66.9677C153.47 66.1477 153.72 65.2277 153.7 64.2077C153.72 63.1677 153.47 62.2477 152.95 61.4477C152.45 60.6277 151.75 59.9877 150.85 59.5277C149.97 59.0677 148.98 58.8377 147.88 58.8377C146.78 58.8377 145.78 59.0777 144.88 59.5577C143.98 60.0177 143.27 60.6477 142.75 61.4477C142.25 62.2477 142.01 63.1677 142.03 64.2077C142.01 65.2277 142.25 66.1477 142.75 66.9677C143.27 67.7677 143.98 68.4077 144.88 68.8877C145.78 69.3477 146.78 69.5777 147.88 69.5777Z" fill="#FBF8F8" fill-opacity="0.7"/>
<path d="M20.4329 72.0977H19.4329V73.0977H20.4329V72.0977ZM20.4329 54.2177H21.4329V53.2177H20.4329V54.2177ZM13.7129 54.2177H12.7129V55.2177H13.7129V54.2177ZM13.7129 51.0977V50.0977H12.7129V51.0977H13.7129ZM30.5729 51.0977H31.5729V50.0977H30.5729V51.0977ZM30.5729 54.2177V55.2177H31.5729V54.2177H30.5729ZM23.6729 54.2177V53.2177H22.6729V54.2177H23.6729ZM23.6729 72.0977V73.0977H24.6729V72.0977H23.6729ZM21.4329 72.0977V54.2177H19.4329V72.0977H21.4329ZM20.4329 53.2177H13.7129V55.2177H20.4329V53.2177ZM14.7129 54.2177V51.0977H12.7129V54.2177H14.7129ZM13.7129 52.0977H30.5729V50.0977H13.7129V52.0977ZM29.5729 51.0977V54.2177H31.5729V51.0977H29.5729ZM30.5729 53.2177H23.6729V55.2177H30.5729V53.2177ZM22.6729 54.2177V72.0977H24.6729V54.2177H22.6729ZM23.6729 71.0977H20.4329V73.0977H23.6729V71.0977ZM36.0324 71.3477L35.5591 72.2285L35.5669 72.2327L35.5748 72.2368L36.0324 71.3477ZM32.8524 68.4377L32.0059 68.9701L32.0099 68.9763L32.8524 68.4377ZM32.8524 60.0077L33.695 60.5463L33.6989 60.5401L32.8524 60.0077ZM36.0324 57.0977L36.4954 57.984L36.5003 57.9814L36.0324 57.0977ZM45.2724 57.0977L44.7991 57.9785L44.8069 57.9827L44.8148 57.9868L45.2724 57.0977ZM48.4824 60.0077L47.6359 60.5401L47.6399 60.5463L48.4824 60.0077ZM48.4824 68.4377L49.325 68.9763L49.3289 68.9701L48.4824 68.4377ZM45.2724 71.3477L45.7354 72.234L45.7403 72.2314L45.2724 71.3477ZM43.6524 68.8877L44.1157 69.7739L44.123 69.77L43.6524 68.8877ZM45.7524 66.9677L44.9079 66.4321L44.9044 66.4377L45.7524 66.9677ZM46.5024 64.2077L45.5026 64.1884L45.5022 64.2078L45.5026 64.2273L46.5024 64.2077ZM45.7524 61.4477L44.8986 61.9683L44.9061 61.9806L44.914 61.9926L45.7524 61.4477ZM43.6524 59.5277L43.1891 60.4139L43.1973 60.4181L43.6524 59.5277ZM37.6824 59.5577L38.1375 60.4481L38.1453 60.4441L38.153 60.44L37.6824 59.5577ZM35.5524 61.4477L34.714 60.9027L34.7091 60.9101L34.7044 60.9177L35.5524 61.4477ZM34.8324 64.2077L35.8322 64.2273L35.8326 64.2078L35.8322 64.1884L34.8324 64.2077ZM35.5524 66.9677L34.6986 67.4883L34.7061 67.5006L34.714 67.5126L35.5524 66.9677ZM37.6824 68.8877L37.2118 69.77L37.2195 69.7741L37.2273 69.7781L37.6824 68.8877ZM40.6824 71.3977C39.0795 71.3977 37.6901 71.0762 36.49 70.4585L35.5748 72.2368C37.0947 73.0191 38.8053 73.3977 40.6824 73.3977V71.3977ZM36.5057 70.4668C35.3081 69.8233 34.3784 68.968 33.6949 67.899L32.0099 68.9763C32.8864 70.3474 34.0767 71.4321 35.5591 72.2285L36.5057 70.4668ZM33.6989 67.9052C33.0271 66.8372 32.6824 65.6147 32.6824 64.2077H30.6824C30.6824 65.9607 31.1177 67.5581 32.0059 68.9701L33.6989 67.9052ZM32.6824 64.2077C32.6824 62.8005 33.0271 61.5909 33.6949 60.5463L32.0099 59.469C31.1177 60.8644 30.6824 62.4548 30.6824 64.2077H32.6824ZM33.6989 60.5401C34.3815 59.4549 35.3071 58.6048 36.4954 57.984L35.5694 56.2113C34.0778 56.9905 32.8833 58.0804 32.0059 59.4752L33.6989 60.5401ZM36.5003 57.9814C37.6982 57.3473 39.0839 57.0177 40.6824 57.0177V55.0177C38.8009 55.0177 37.0866 55.4081 35.5645 56.2139L36.5003 57.9814ZM40.6824 57.0177C42.2591 57.0177 43.6227 57.3465 44.7991 57.9785L45.7457 56.2168C44.2421 55.4088 42.5457 55.0177 40.6824 55.0177V57.0177ZM44.8148 57.9868C46.0229 58.6086 46.9556 59.4585 47.6359 60.5401L49.3289 59.4752C48.4492 58.0768 47.2419 56.9867 45.73 56.2085L44.8148 57.9868ZM47.6399 60.5463C48.3077 61.5909 48.6524 62.8005 48.6524 64.2077H50.6524C50.6524 62.4548 50.2171 60.8644 49.3249 59.469L47.6399 60.5463ZM48.6524 64.2077C48.6524 65.6147 48.3077 66.8372 47.6359 67.9052L49.3289 68.9701C50.2171 67.5581 50.6524 65.9607 50.6524 64.2077H48.6524ZM47.6399 67.899C46.9587 68.9644 46.0218 69.8194 44.8045 70.4639L45.7403 72.2314C47.243 71.4359 48.4461 70.3509 49.3249 68.9763L47.6399 67.899ZM44.8094 70.4613C43.6309 71.0769 42.2636 71.3977 40.6824 71.3977V73.3977C42.5412 73.3977 44.2339 73.0184 45.7354 72.234L44.8094 70.4613ZM40.6824 70.5777C41.9261 70.5777 43.0778 70.3164 44.1157 69.7739L43.1892 68.0014C42.467 68.3789 41.6388 68.5777 40.6824 68.5777V70.5777ZM44.123 69.77C45.1645 69.2145 46.0001 68.4581 46.6004 67.4977L44.9044 66.4377C44.5047 67.0772 43.9403 67.6008 43.1818 68.0053L44.123 69.77ZM46.5969 67.5032C47.2275 66.5088 47.5259 65.3938 47.5022 64.1881L45.5026 64.2273C45.519 65.0615 45.3173 65.7865 44.9079 66.4321L46.5969 67.5032ZM47.5022 64.2269C47.5257 63.0058 47.2297 61.8855 46.5908 60.9027L44.914 61.9926C45.3151 62.6098 45.5191 63.3295 45.5026 64.1884L47.5022 64.2269ZM46.6062 60.927C46.0049 59.9409 45.163 59.1767 44.1075 58.6372L43.1973 60.4181C43.9418 60.7986 44.4999 61.3144 44.8986 61.9683L46.6062 60.927ZM44.1157 58.6414C43.0778 58.0989 41.9261 57.8377 40.6824 57.8377V59.8377C41.6388 59.8377 42.467 60.0364 43.1892 60.4139L44.1157 58.6414ZM40.6824 57.8377C39.4315 57.8377 38.2679 58.1121 37.2118 58.6753L38.153 60.44C38.8969 60.0432 39.7333 59.8377 40.6824 59.8377V57.8377ZM37.2273 58.6672C36.1811 59.202 35.335 59.9472 34.714 60.9027L36.3908 61.9926C36.8098 61.3481 37.3837 60.8334 38.1375 60.4481L37.2273 58.6672ZM34.7044 60.9177C34.0912 61.8988 33.8093 63.0136 33.8326 64.2269L35.8322 64.1884C35.8156 63.3217 36.0136 62.5965 36.4004 61.9777L34.7044 60.9177ZM33.8326 64.1881C33.8091 65.386 34.0933 66.4955 34.6986 67.4883L36.4062 66.447C36.0116 65.7998 35.8157 65.0694 35.8322 64.2273L33.8326 64.1881ZM34.714 67.5126C35.3324 68.4641 36.1733 69.2161 37.2118 69.77L38.153 68.0053C37.3915 67.5992 36.8124 67.0712 36.3908 66.4227L34.714 67.5126ZM37.2273 69.7781C38.2804 70.3163 39.4384 70.5777 40.6824 70.5777V68.5777C39.7264 68.5777 38.8844 68.379 38.1375 67.9972L37.2273 69.7781ZM58.5317 71.5577L57.9984 72.4036L58.005 72.4078L58.0118 72.4119L58.5317 71.5577ZM56.3717 69.1277L55.4673 69.5543L55.4722 69.5646L55.4773 69.5749L56.3717 69.1277ZM55.6217 56.3477V55.3477H54.6217V56.3477H55.6217ZM58.7117 56.3477H59.7117V55.3477H58.7117V56.3477ZM59.1917 67.2077L58.2665 67.5872L58.2701 67.5957L59.1917 67.2077ZM60.6317 68.9477L61.1617 68.0997L60.6317 68.9477ZM64.8917 69.2177L64.537 68.2827L64.8917 69.2177ZM66.3917 68.2877L65.719 67.5477L65.7104 67.5555L65.702 67.5635L66.3917 68.2877ZM67.4117 66.8477L66.5047 66.4265L66.4984 66.4401L66.4926 66.4537L67.4117 66.8477ZM67.8017 56.3477V55.3477H66.8017V56.3477H67.8017ZM70.8917 56.3477H71.8917V55.3477H70.8917V56.3477ZM70.8917 72.0977V73.0977H71.8917V72.0977H70.8917ZM67.8017 72.0977H66.8017V73.0977H67.8017V72.0977ZM67.8017 68.7977L67.247 67.9656L66.8017 68.2625V68.7977H67.8017ZM68.3417 68.4377L69.2847 68.7705L70.2832 65.9415L67.787 67.6056L68.3417 68.4377ZM67.0517 70.3877L67.7471 71.1063L67.753 71.1006L67.7588 71.0948L67.0517 70.3877ZM64.7717 71.8577L65.1431 72.7861L65.1519 72.7826L65.1607 72.7789L64.7717 71.8577ZM61.7417 71.3977C60.6802 71.3977 59.795 71.1559 59.0517 70.7035L58.0118 72.4119C59.1084 73.0794 60.3632 73.3977 61.7417 73.3977V71.3977ZM59.065 70.7117C58.3103 70.2359 57.7103 69.5688 57.2661 68.6804L55.4773 69.5749C56.0731 70.7665 56.9131 71.7194 57.9984 72.4036L59.065 70.7117ZM57.2761 68.701C56.8526 67.8031 56.6217 66.6955 56.6217 65.3477H54.6217C54.6217 66.9199 54.8908 68.3322 55.4673 69.5543L57.2761 68.701ZM56.6217 65.3477V56.3477H54.6217V65.3477H56.6217ZM55.6217 57.3477H58.7117V55.3477H55.6217V57.3477ZM57.7117 56.3477V64.3877H59.7117V56.3477H57.7117ZM57.7117 64.3877C57.7117 65.5801 57.8846 66.6562 58.2665 67.5872L60.1169 66.8281C59.8588 66.1991 59.7117 65.3952 59.7117 64.3877H57.7117ZM58.2701 67.5957C58.6623 68.5273 59.2706 69.2762 60.1017 69.7957L61.1617 68.0997C60.7128 67.8191 60.3611 67.4081 60.1133 66.8196L58.2701 67.5957ZM60.1017 69.7957C60.9355 70.3168 61.9201 70.5477 63.0017 70.5477V68.5477C62.2033 68.5477 61.6079 68.3785 61.1617 68.0997L60.1017 69.7957ZM63.0017 70.5477C63.7912 70.5477 64.5426 70.4196 65.2464 70.1527L64.537 68.2827C64.0808 68.4557 63.5722 68.5477 63.0017 68.5477V70.5477ZM65.2464 70.1527C65.9422 69.8887 66.5583 69.51 67.0814 69.0118L65.702 67.5635C65.3851 67.8654 65.0012 68.1066 64.537 68.2827L65.2464 70.1527ZM67.0644 69.0276C67.613 68.5288 68.0358 67.9299 68.3308 67.2416L66.4926 66.4537C66.3076 66.8854 66.0504 67.2465 65.719 67.5477L67.0644 69.0276ZM68.3187 67.2688C68.6459 66.564 68.8017 65.7982 68.8017 64.9877H66.8017C66.8017 65.5371 66.6975 66.0114 66.5047 66.4265L68.3187 67.2688ZM68.8017 64.9877V56.3477H66.8017V64.9877H68.8017ZM67.8017 57.3477H70.8917V55.3477H67.8017V57.3477ZM69.8917 56.3477V72.0977H71.8917V56.3477H69.8917ZM70.8917 71.0977H67.8017V73.0977H70.8917V71.0977ZM68.8017 72.0977V68.7977H66.8017V72.0977H68.8017ZM68.3564 69.6297L68.8964 69.2697L67.787 67.6056L67.247 67.9656L68.3564 69.6297ZM67.3987 68.1048C67.218 68.6169 66.8814 69.1437 66.3446 69.6805L67.7588 71.0948C68.462 70.3916 68.9854 69.6184 69.2847 68.7705L67.3987 68.1048ZM66.3563 69.6691C65.836 70.1726 65.1839 70.5981 64.3827 70.9364L65.1607 72.7789C66.1595 72.3572 67.0274 71.8027 67.7471 71.1063L66.3563 69.6691ZM64.4003 70.9292C63.6353 71.2352 62.754 71.3977 61.7417 71.3977V73.3977C62.9694 73.3977 64.1081 73.2001 65.1431 72.7861L64.4003 70.9292ZM78.5082 72.0977H77.5082V73.0977H78.5082V72.0977ZM78.5082 56.3477V55.3477H77.5082V56.3477H78.5082ZM81.6282 56.3477H82.6282V55.3477H81.6282V56.3477ZM81.6282 61.5977L80.806 62.1669L82.6282 64.7989V61.5977H81.6282ZM81.0882 60.8177L80.1292 60.5343L79.9935 60.9933L80.266 61.3869L81.0882 60.8177ZM82.4082 58.4177L83.166 59.0702L83.1747 59.0599L82.4082 58.4177ZM84.5382 56.6777L85.003 57.5631L85.0116 57.5585L85.0201 57.5539L84.5382 56.6777ZM88.4682 56.1677L88.2558 57.1449L88.2642 57.1466L88.4682 56.1677ZM89.5782 56.5577L90.5494 56.796L90.7231 56.0881L90.1023 55.706L89.5782 56.5577ZM88.7682 59.8577L88.2779 60.7292L89.4255 61.3747L89.7394 60.096L88.7682 59.8577ZM87.6282 59.4377L87.3966 60.4105L87.4066 60.4128L87.6282 59.4377ZM84.5082 59.6777L84.8905 60.6017L84.904 60.5961L84.9172 60.5902L84.5082 59.6777ZM82.9782 60.6677L82.2877 59.9443L82.2793 59.9523L82.2711 59.9605L82.9782 60.6677ZM81.9882 62.1077L82.8961 62.5267L82.8991 62.5203L82.902 62.5138L81.9882 62.1077ZM81.6282 72.0977V73.0977H82.6282V72.0977H81.6282ZM79.5082 72.0977V56.3477H77.5082V72.0977H79.5082ZM78.5082 57.3477H81.6282V55.3477H78.5082V57.3477ZM80.6282 56.3477V61.5977H82.6282V56.3477H80.6282ZM82.4504 61.0284L81.9104 60.2484L80.266 61.3869L80.806 62.1669L82.4504 61.0284ZM82.0472 61.101C82.2656 60.3618 82.6351 59.6867 83.166 59.0702L81.6504 57.7651C80.9413 58.5886 80.4308 59.5135 80.1292 60.5343L82.0472 61.101ZM83.1747 59.0599C83.7168 58.4129 84.3262 57.9184 85.003 57.5631L84.0734 55.7923C83.1502 56.2769 82.3396 56.9424 81.6417 57.7754L83.1747 59.0599ZM85.0201 57.5539C85.6819 57.1899 86.3471 57.0177 87.0282 57.0177V55.0177C85.9893 55.0177 84.9945 55.2854 84.0563 55.8014L85.0201 57.5539ZM87.0282 57.0177C87.4612 57.0177 87.8697 57.0609 88.2558 57.1448L88.6806 55.1905C88.1466 55.0744 87.5952 55.0177 87.0282 55.0177V57.0177ZM88.2642 57.1466C88.6911 57.2356 88.934 57.3354 89.0541 57.4093L90.1023 55.706C89.7023 55.4599 89.2053 55.2998 88.6721 55.1887L88.2642 57.1466ZM88.607 56.3193L87.797 59.6193L89.7394 60.096L90.5494 56.796L88.607 56.3193ZM89.2584 58.9861C88.8377 58.7494 88.3632 58.5792 87.8498 58.4625L87.4066 60.4128C87.7731 60.4961 88.0587 60.6059 88.2779 60.7292L89.2584 58.9861ZM87.8598 58.4648C87.3699 58.3482 86.8821 58.2877 86.3982 58.2877V60.2877C86.7143 60.2877 87.0465 60.3271 87.3966 60.4105L87.8598 58.4648ZM86.3982 58.2877C85.5872 58.2877 84.8166 58.4435 84.0991 58.7651L84.9172 60.5902C85.3598 60.3918 85.8492 60.2877 86.3982 60.2877V58.2877ZM84.1258 58.7536C83.4353 59.0394 82.82 59.4362 82.2877 59.9443L83.6687 61.391C84.0164 61.0591 84.4211 60.7959 84.8905 60.6017L84.1258 58.7536ZM82.2711 59.9605C81.7647 60.4669 81.3645 61.0488 81.0744 61.7015L82.902 62.5138C83.0919 62.0865 83.3516 61.7084 83.6853 61.3748L82.2711 59.9605ZM81.0802 61.6886C80.7788 62.3417 80.6282 63.0349 80.6282 63.7577H82.6282C82.6282 63.3205 82.7176 62.9136 82.8961 62.5267L81.0802 61.6886ZM80.6282 63.7577V72.0977H82.6282V63.7577H80.6282ZM81.6282 71.0977H78.5082V73.0977H81.6282V71.0977ZM95.4195 72.0977H94.4195V73.0977H95.4195V72.0977ZM95.4195 56.3477V55.3477H94.4195V56.3477H95.4195ZM98.5095 56.3477H99.5095V55.3477H98.5095V56.3477ZM98.5095 72.0977V73.0977H99.5095V72.0977H98.5095ZM95.3895 52.2377L96.0761 51.5106H96.0761L95.3895 52.2377ZM95.3895 49.3877L94.7018 48.6617L94.692 48.671L94.6824 48.6805L95.3895 49.3877ZM98.4495 49.3577L97.7629 50.0847V50.0847L98.4495 49.3577ZM98.4195 52.2077L97.7318 51.4817L97.722 51.491L97.7124 51.5005L98.4195 52.2077ZM96.4195 72.0977V56.3477H94.4195V72.0977H96.4195ZM95.4195 57.3477H98.5095V55.3477H95.4195V57.3477ZM97.5095 56.3477V72.0977H99.5095V56.3477H97.5095ZM98.5095 71.0977H95.4195V73.0977H98.5095V71.0977ZM96.9195 51.7477C96.4278 51.7477 96.1956 51.6235 96.0761 51.5106L94.7029 52.9647C95.3034 53.5318 96.0912 53.7477 96.9195 53.7477V51.7477ZM96.0761 51.5106C95.9642 51.4049 95.8495 51.2164 95.8495 50.7977H93.8495C93.8495 51.6189 94.0948 52.3904 94.7029 52.9647L96.0761 51.5106ZM95.8495 50.7977C95.8495 50.4427 95.9508 50.2406 96.0966 50.0948L94.6824 48.6805C94.1083 49.2547 93.8495 49.9926 93.8495 50.7977H95.8495ZM96.0773 50.1136C96.232 49.967 96.4753 49.8477 96.9195 49.8477V47.8477C96.0838 47.8477 95.307 48.0883 94.7018 48.6617L96.0773 50.1136ZM96.9195 49.8477C97.4112 49.8477 97.6434 49.9718 97.7629 50.0847L99.1361 48.6306C98.5356 48.0635 97.7478 47.8477 96.9195 47.8477V49.8477ZM97.7629 50.0847C97.8748 50.1904 97.9895 50.3789 97.9895 50.7977H99.9895C99.9895 49.9764 99.7442 49.2049 99.1361 48.6306L97.7629 50.0847ZM97.9895 50.7977C97.9895 51.1359 97.8898 51.332 97.7318 51.4817L99.1073 52.9336C99.7092 52.3633 99.9895 51.6194 99.9895 50.7977H97.9895ZM97.7124 51.5005C97.5853 51.6277 97.3662 51.7477 96.9195 51.7477V53.7477C97.7528 53.7477 98.5337 53.5077 99.1266 52.9148L97.7124 51.5005ZM107.925 71.7077L107.577 72.6452L107.582 72.647L107.925 71.7077ZM104.805 69.5477L104.142 68.7991L103.405 69.4514L104.045 70.1984L104.805 69.5477ZM106.905 67.6877L107.632 67.001L106.967 66.2969L106.242 66.9391L106.905 67.6877ZM109.215 69.3077L108.828 70.2301L108.836 70.2332L109.215 69.3077ZM114.525 69.3677L114.95 70.2725H114.95L114.525 69.3677ZM115.335 68.7377L114.542 68.1279L115.335 68.7377ZM114.615 66.4877L115.04 65.5828L115.009 65.5682L114.977 65.5557L114.615 66.4877ZM111.465 65.5877L111.249 66.5642L111.259 66.5663L111.268 66.5682L111.465 65.5877ZM108.405 64.7177L108.037 65.6476L108.046 65.6513L108.056 65.6549L108.405 64.7177ZM106.335 63.4877L105.627 64.1948L105.642 64.2089L105.656 64.2225L106.335 63.4877ZM105.465 62.1977L104.528 62.5488L104.535 62.5656L104.542 62.5823L105.465 62.1977ZM105.675 58.7177L104.82 58.1987L104.813 58.21L104.806 58.2215L105.675 58.7177ZM107.085 57.2777L106.53 56.4456L107.085 57.2777ZM109.185 56.3477L108.919 55.3834L109.185 56.3477ZM114.255 56.3177L114.023 57.2905L114.036 57.2936L114.05 57.2964L114.255 56.3177ZM116.655 57.1577L116.198 58.0472L116.212 58.0545L116.227 58.0614L116.655 57.1577ZM118.545 58.5377L119.306 59.1856L119.871 58.5218L119.291 57.8716L118.545 58.5377ZM116.835 60.5477L116.198 61.3186L116.958 61.9463L117.596 61.1956L116.835 60.5477ZM115.275 59.5277L114.802 60.4091L114.809 60.4125L114.815 60.4159L115.275 59.5277ZM113.535 58.8377L113.247 59.7955L113.262 59.7999L113.277 59.8039L113.535 58.8377ZM110.535 58.6877L110.67 59.6785L110.692 59.6755L110.713 59.6715L110.535 58.6877ZM109.365 59.0177L109.765 59.9338L109.778 59.9283L109.79 59.9225L109.365 59.0177ZM108.585 59.5877L109.353 60.2278L108.585 59.5877ZM108.465 61.1777L107.587 61.6565L107.613 61.7054L107.645 61.7511L108.465 61.1777ZM109.005 61.7177L108.416 62.5264L108.438 62.5424L108.461 62.5572L109.005 61.7177ZM110.385 62.3177L110.681 61.3626L110.385 62.3177ZM112.455 62.8277L112.662 61.8492L112.651 61.8471L112.455 62.8277ZM115.215 63.6077L114.863 64.544L114.877 64.5492L114.891 64.554L115.215 63.6077ZM117.255 64.6577L116.641 65.447L116.65 65.4545L116.66 65.4618L117.255 64.6577ZM118.275 65.8877L117.366 66.3043L117.373 66.3197L117.38 66.3349L118.275 65.8877ZM117.735 70.1177L116.958 69.4879L116.956 69.4903L117.735 70.1177ZM115.395 71.7977L115.017 70.8718L115.395 71.7977ZM112.095 71.3977C110.676 71.3977 109.404 71.1832 108.268 70.7683L107.582 72.647C108.965 73.1521 110.473 73.3977 112.095 73.3977V71.3977ZM108.272 70.7701C107.188 70.3677 106.29 69.7446 105.564 68.8969L104.045 70.1984C104.999 71.3107 106.182 72.1277 107.577 72.6452L108.272 70.7701ZM105.468 70.2962L107.568 68.4362L106.242 66.9391L104.142 68.7991L105.468 70.2962ZM106.178 68.3743C106.947 69.1894 107.832 69.8128 108.828 70.2301L109.601 68.3852C108.877 68.0825 108.222 67.6259 107.632 67.001L106.178 68.3743ZM108.836 70.2332C109.849 70.6477 110.95 70.8477 112.125 70.8477V68.8477C111.18 68.8477 110.34 68.6876 109.593 68.3821L108.836 70.2332ZM112.125 70.8477C112.608 70.8477 113.091 70.8015 113.572 70.71L113.197 68.7453C112.838 68.8138 112.481 68.8477 112.125 68.8477V70.8477ZM113.572 70.71C114.063 70.6164 114.525 70.4727 114.95 70.2725L114.099 68.4628C113.844 68.5826 113.546 68.6789 113.197 68.7453L113.572 70.71ZM114.95 70.2725C115.413 70.0546 115.817 69.7508 116.127 69.3474L114.542 68.1279C114.452 68.2445 114.316 68.3607 114.099 68.4628L114.95 70.2725ZM116.127 69.3474C116.467 68.9058 116.635 68.3895 116.635 67.8377H114.635C114.635 67.9658 114.602 68.0495 114.542 68.1279L116.127 69.3474ZM116.635 67.8377C116.635 66.7499 115.947 66.0095 115.04 65.5828L114.189 67.3925C114.642 67.6058 114.635 67.7654 114.635 67.8377H116.635ZM114.977 65.5557C114.588 65.4042 114.123 65.2464 113.589 65.0819L113.001 66.9934C113.506 67.149 113.922 67.2911 114.252 67.4197L114.977 65.5557ZM113.589 65.0819C113.028 64.9095 112.384 64.7518 111.661 64.6071L111.268 66.5682C111.945 66.7035 112.521 66.8458 113.001 66.9934L113.589 65.0819ZM111.68 64.6111C110.532 64.3581 109.559 64.0801 108.753 63.7804L108.056 65.6549C108.971 65.9952 110.037 66.2972 111.249 66.5642L111.68 64.6111ZM108.772 63.7877C107.994 63.4798 107.419 63.1279 107.013 62.7529L105.656 64.2225C106.29 64.8074 107.096 65.2755 108.037 65.6476L108.772 63.7877ZM107.042 62.7806C106.751 62.4898 106.536 62.1684 106.388 61.813L104.542 62.5823C104.793 63.1869 105.158 63.7256 105.627 64.1948L107.042 62.7806ZM106.401 61.8465C106.271 61.4996 106.195 61.0721 106.195 60.5477H104.195C104.195 61.2632 104.298 61.9357 104.528 62.5488L106.401 61.8465ZM106.195 60.5477C106.195 60.0574 106.311 59.6191 106.543 59.2138L104.806 58.2215C104.398 58.9363 104.195 59.7179 104.195 60.5477H106.195ZM106.529 59.2366C106.786 58.8138 107.149 58.4368 107.639 58.1097L106.53 56.4456C105.821 56.9185 105.243 57.5015 104.82 58.1987L106.529 59.2366ZM107.639 58.1097C108.138 57.7771 108.737 57.5077 109.45 57.3119L108.919 55.3834C108.032 55.6276 107.231 55.9782 106.53 56.4456L107.639 58.1097ZM109.45 57.3119C110.155 57.118 110.925 57.0177 111.765 57.0177V55.0177C110.765 55.0177 109.815 55.1373 108.919 55.3834L109.45 57.3119ZM111.765 57.0177C112.503 57.0177 113.255 57.1076 114.023 57.2905L114.486 55.3448C113.574 55.1277 112.667 55.0177 111.765 55.0177V57.0177ZM114.05 57.2964C114.827 57.4591 115.542 57.7103 116.198 58.0472L117.111 56.2681C116.287 55.845 115.402 55.5362 114.459 55.3389L114.05 57.2964ZM116.227 58.0614C116.88 58.3711 117.398 58.7547 117.799 59.2037L119.291 57.8716C118.691 57.2006 117.949 56.6643 117.083 56.2539L116.227 58.0614ZM117.783 57.8897L116.073 59.8997L117.596 61.1956L119.306 59.1856L117.783 57.8897ZM117.471 59.7767C116.952 59.3474 116.371 58.9691 115.734 58.6394L114.815 60.4159C115.338 60.6862 115.797 60.9879 116.198 61.3186L117.471 59.7767ZM115.747 58.6462C115.12 58.3106 114.469 58.0518 113.792 57.8714L113.277 59.8039C113.801 59.9436 114.309 60.1447 114.802 60.4091L115.747 58.6462ZM113.822 57.8798C113.147 57.6774 112.489 57.5677 111.855 57.5677V59.5677C112.26 59.5677 112.722 59.6379 113.247 59.7955L113.822 57.8798ZM111.855 57.5677C111.354 57.5677 110.854 57.6132 110.356 57.7038L110.713 59.6715C111.095 59.6021 111.476 59.5677 111.855 59.5677V57.5677ZM110.399 57.6968C109.877 57.7681 109.386 57.9025 108.939 58.1128L109.79 59.9225C110.023 59.8128 110.313 59.7272 110.67 59.6785L110.399 57.6968ZM108.964 58.1015C108.519 58.2963 108.127 58.5747 107.816 58.9475L109.353 60.2278C109.442 60.1206 109.571 60.019 109.765 59.9338L108.964 58.1015ZM107.816 58.9475C107.453 59.3835 107.285 59.9059 107.285 60.4577H109.285C109.285 60.3294 109.316 60.2718 109.353 60.2278L107.816 58.9475ZM107.285 60.4577C107.285 60.8785 107.384 61.284 107.587 61.6565L109.342 60.6988C109.306 60.6313 109.285 60.5569 109.285 60.4577H107.285ZM107.645 61.7511C107.856 62.0515 108.117 62.3087 108.416 62.5264L109.593 60.9089C109.452 60.8066 109.354 60.7038 109.284 60.6042L107.645 61.7511ZM108.461 62.5572C108.906 62.8449 109.46 63.0777 110.088 63.2727L110.681 61.3626C110.149 61.1976 109.783 61.0304 109.548 60.8781L108.461 62.5572ZM110.088 63.2727C110.71 63.4657 111.435 63.6436 112.258 63.8082L112.651 61.8471C111.874 61.6917 111.219 61.5296 110.681 61.3626L110.088 63.2727ZM112.248 63.806C113.25 64.018 114.12 64.2652 114.863 64.544L115.566 62.6713C114.709 62.3501 113.739 62.0773 112.662 61.8493L112.248 63.806ZM114.891 64.554C115.633 64.8073 116.208 65.1105 116.641 65.447L117.869 63.8683C117.221 63.3648 116.436 62.968 115.538 62.6613L114.891 64.554ZM116.66 65.4618C116.996 65.7099 117.222 65.9907 117.366 66.3043L119.184 65.471C118.887 64.8247 118.433 64.2854 117.849 63.8535L116.66 65.4618ZM117.38 66.3349C117.541 66.6559 117.635 67.0488 117.635 67.5377H119.635C119.635 66.7866 119.488 66.0794 119.169 65.4404L117.38 66.3349ZM117.635 67.5377C117.635 68.2955 117.409 68.9314 116.958 69.4879L118.511 70.7475C119.26 69.8239 119.635 68.7398 119.635 67.5377H117.635ZM116.956 69.4903C116.497 70.0604 115.863 70.5264 115.017 70.8718L115.772 72.7235C116.886 72.2689 117.813 71.6149 118.513 70.745L116.956 69.4903ZM115.017 70.8718C114.174 71.216 113.205 71.3977 112.095 71.3977V73.3977C113.425 73.3977 114.656 73.1794 115.772 72.7235L115.017 70.8718ZM126.838 72.0977H125.838V73.0977H126.838V72.0977ZM126.838 51.9677V50.9677H125.838V51.9677H126.838ZM129.928 51.9677H130.928V50.9677H129.928V51.9677ZM129.928 72.0977V73.0977H130.928V72.0977H129.928ZM122.848 59.3477H121.848V60.3477H122.848V59.3477ZM122.848 56.3477V55.3477H121.848V56.3477H122.848ZM134.548 56.3477H135.548V55.3477H134.548V56.3477ZM134.548 59.3477V60.3477H135.548V59.3477H134.548ZM127.838 72.0977V51.9677H125.838V72.0977H127.838ZM126.838 52.9677H129.928V50.9677H126.838V52.9677ZM128.928 51.9677V72.0977H130.928V51.9677H128.928ZM129.928 71.0977H126.838V73.0977H129.928V71.0977ZM123.848 59.3477V56.3477H121.848V59.3477H123.848ZM122.848 57.3477H134.548V55.3477H122.848V57.3477ZM133.548 56.3477V59.3477H135.548V56.3477H133.548ZM134.548 58.3477H122.848V60.3477H134.548V58.3477ZM143.23 71.3477L142.756 72.2285L142.764 72.2327L142.772 72.2368L143.23 71.3477ZM140.05 68.4377L139.203 68.9701L139.207 68.9763L140.05 68.4377ZM140.05 60.0077L140.892 60.5463L140.896 60.5401L140.05 60.0077ZM143.23 57.0977L143.693 57.984L143.698 57.9814L143.23 57.0977ZM152.47 57.0977L151.996 57.9785L152.004 57.9827L152.012 57.9868L152.47 57.0977ZM155.68 60.0077L154.833 60.5401L154.837 60.5463L155.68 60.0077ZM155.68 68.4377L156.522 68.9763L156.526 68.9701L155.68 68.4377ZM152.47 71.3477L152.933 72.234L152.938 72.2314L152.47 71.3477ZM150.85 68.8877L151.313 69.7739L151.32 69.77L150.85 68.8877ZM152.95 66.9677L152.105 66.4321L152.102 66.4377L152.95 66.9677ZM153.7 64.2077L152.7 64.1884L152.699 64.2078L152.7 64.2273L153.7 64.2077ZM152.95 61.4477L152.096 61.9683L152.103 61.9806L152.111 61.9926L152.95 61.4477ZM150.85 59.5277L150.386 60.4139L150.395 60.4181L150.85 59.5277ZM144.88 59.5577L145.335 60.4481L145.343 60.4441L145.35 60.44L144.88 59.5577ZM142.75 61.4477L141.911 60.9027L141.906 60.9101L141.902 60.9177L142.75 61.4477ZM142.03 64.2077L143.029 64.2273L143.03 64.2078L143.029 64.1884L142.03 64.2077ZM142.75 66.9677L141.896 67.4883L141.903 67.5006L141.911 67.5126L142.75 66.9677ZM144.88 68.8877L144.409 69.77L144.417 69.7741L144.425 69.7781L144.88 68.8877ZM147.88 71.3977C146.277 71.3977 144.887 71.0762 143.687 70.4585L142.772 72.2368C144.292 73.0191 146.003 73.3977 147.88 73.3977V71.3977ZM143.703 70.4668C142.505 69.8233 141.576 68.968 140.892 67.899L139.207 68.9763C140.084 70.3474 141.274 71.4321 142.756 72.2285L143.703 70.4668ZM140.896 67.9052C140.224 66.8372 139.88 65.6147 139.88 64.2077H137.88C137.88 65.9607 138.315 67.5581 139.203 68.9701L140.896 67.9052ZM139.88 64.2077C139.88 62.8005 140.224 61.5909 140.892 60.5463L139.207 59.469C138.315 60.8644 137.88 62.4548 137.88 64.2077H139.88ZM140.896 60.5401C141.579 59.4549 142.504 58.6048 143.693 57.984L142.767 56.2113C141.275 56.9905 140.081 58.0804 139.203 59.4752L140.896 60.5401ZM143.698 57.9814C144.895 57.3473 146.281 57.0177 147.88 57.0177V55.0177C145.998 55.0177 144.284 55.4081 142.762 56.2139L143.698 57.9814ZM147.88 57.0177C149.456 57.0177 150.82 57.3465 151.996 57.9785L152.943 56.2168C151.439 55.4088 149.743 55.0177 147.88 55.0177V57.0177ZM152.012 57.9868C153.22 58.6086 154.153 59.4585 154.833 60.5401L156.526 59.4752C155.646 58.0768 154.439 56.9867 152.927 56.2085L152.012 57.9868ZM154.837 60.5463C155.505 61.5909 155.85 62.8005 155.85 64.2077H157.85C157.85 62.4548 157.414 60.8644 156.522 59.469L154.837 60.5463ZM155.85 64.2077C155.85 65.6147 155.505 66.8372 154.833 67.9052L156.526 68.9701C157.414 67.5581 157.85 65.9607 157.85 64.2077H155.85ZM154.837 67.899C154.156 68.9644 153.219 69.8194 152.002 70.4639L152.938 72.2314C154.44 71.4359 155.643 70.3509 156.522 68.9763L154.837 67.899ZM152.007 70.4613C150.828 71.0769 149.461 71.3977 147.88 71.3977V73.3977C149.739 73.3977 151.431 73.0184 152.933 72.234L152.007 70.4613ZM147.88 70.5777C149.123 70.5777 150.275 70.3164 151.313 69.7739L150.386 68.0014C149.664 68.3789 148.836 68.5777 147.88 68.5777V70.5777ZM151.32 69.77C152.362 69.2145 153.197 68.4581 153.798 67.4977L152.102 66.4377C151.702 67.0772 151.138 67.6008 150.379 68.0053L151.32 69.77ZM153.794 67.5032C154.425 66.5088 154.723 65.3938 154.699 64.1881L152.7 64.2273C152.716 65.0615 152.515 65.7865 152.105 66.4321L153.794 67.5032ZM154.699 64.2269C154.723 63.0058 154.427 61.8855 153.788 60.9027L152.111 61.9926C152.512 62.6098 152.716 63.3295 152.7 64.1884L154.699 64.2269ZM153.803 60.927C153.202 59.9409 152.36 59.1767 151.305 58.6372L150.395 60.4181C151.139 60.7986 151.697 61.3144 152.096 61.9683L153.803 60.927ZM151.313 58.6414C150.275 58.0989 149.123 57.8377 147.88 57.8377V59.8377C148.836 59.8377 149.664 60.0364 150.386 60.4139L151.313 58.6414ZM147.88 57.8377C146.629 57.8377 145.465 58.1121 144.409 58.6753L145.35 60.44C146.094 60.0432 146.931 59.8377 147.88 59.8377V57.8377ZM144.425 58.6672C143.378 59.202 142.532 59.9472 141.911 60.9027L143.588 61.9926C144.007 61.3481 144.581 60.8334 145.335 60.4481L144.425 58.6672ZM141.902 60.9177C141.288 61.8988 141.007 63.0136 141.03 64.2269L143.029 64.1884C143.013 63.3217 143.211 62.5965 143.598 61.9777L141.902 60.9177ZM141.03 64.1881C141.006 65.386 141.291 66.4955 141.896 67.4883L143.603 66.447C143.209 65.7998 143.013 65.0694 143.029 64.2273L141.03 64.1881ZM141.911 67.5126C142.53 68.4641 143.371 69.2161 144.409 69.77L145.35 68.0053C144.589 67.5992 144.01 67.0712 143.588 66.4227L141.911 67.5126ZM144.425 69.7781C145.478 70.3163 146.636 70.5777 147.88 70.5777V68.5777C146.924 68.5777 146.082 68.379 145.335 67.9972L144.425 69.7781Z" fill="#FBF8F8" fill-opacity="0.7"/>
</svg>
