<svg width="51" height="50" viewBox="0 0 51 50" fill="none" xmlns="http://www.w3.org/2000/svg">
<path d="M47.375 41.0156H45.4219V20.3125C45.4219 19.5873 45.1338 18.8918 44.621 18.379C44.1082 17.8662 43.4127 17.5781 42.6875 17.5781H29.7969V7.8125C29.7969 7.0873 29.5088 6.3918 28.996 5.87901C28.4832 5.36621 27.7877 5.07812 27.0625 5.07812H8.3125C7.5873 5.07812 6.8918 5.36621 6.379 5.87901C5.86621 6.3918 5.57812 7.0873 5.57812 7.8125V41.0156H3.625C3.3142 41.0156 3.01613 41.1391 2.79636 41.3589C2.57659 41.5786 2.45312 41.8767 2.45312 42.1875C2.45312 42.4983 2.57659 42.7964 2.79636 43.0161C3.01613 43.2359 3.3142 43.3594 3.625 43.3594H47.375C47.6858 43.3594 47.9839 43.2359 48.2036 43.0161C48.4234 42.7964 48.5469 42.4983 48.5469 42.1875C48.5469 41.8767 48.4234 41.5786 48.2036 41.3589C47.9839 41.1391 47.6858 41.0156 47.375 41.0156ZM42.6875 19.9219C42.7911 19.9219 42.8905 19.963 42.9637 20.0363C43.037 20.1095 43.0781 20.2089 43.0781 20.3125V41.0156H29.7969V19.9219H42.6875ZM7.92188 7.8125C7.92188 7.7089 7.96303 7.60954 8.03629 7.53629C8.10954 7.46303 8.2089 7.42188 8.3125 7.42188H27.0625C27.1661 7.42188 27.2655 7.46303 27.3387 7.53629C27.412 7.60954 27.4531 7.7089 27.4531 7.8125V41.0156H7.92188V7.8125ZM11.8281 14.0625C11.8281 13.7517 11.9516 13.4536 12.1714 13.2339C12.3911 13.0141 12.6892 12.8906 13 12.8906H19.25C19.5608 12.8906 19.8589 13.0141 20.0786 13.2339C20.2984 13.4536 20.4219 13.7517 20.4219 14.0625C20.4219 14.3733 20.2984 14.6714 20.0786 14.8911C19.8589 15.1109 19.5608 15.2344 19.25 15.2344H13C12.6892 15.2344 12.3911 15.1109 12.1714 14.8911C11.9516 14.6714 11.8281 14.3733 11.8281 14.0625ZM23.5469 26.5625C23.5469 26.8733 23.4234 27.1714 23.2036 27.3911C22.9839 27.6109 22.6858 27.7344 22.375 27.7344H16.125C15.8142 27.7344 15.5161 27.6109 15.2964 27.3911C15.0766 27.1714 14.9531 26.8733 14.9531 26.5625C14.9531 26.2517 15.0766 25.9536 15.2964 25.7339C15.5161 25.5141 15.8142 25.3906 16.125 25.3906H22.375C22.6858 25.3906 22.9839 25.5141 23.2036 25.7339C23.4234 25.9536 23.5469 26.2517 23.5469 26.5625ZM20.4219 34.375C20.4219 34.6858 20.2984 34.9839 20.0786 35.2036C19.8589 35.4234 19.5608 35.5469 19.25 35.5469H13C12.6892 35.5469 12.3911 35.4234 12.1714 35.2036C11.9516 34.9839 11.8281 34.6858 11.8281 34.375C11.8281 34.0642 11.9516 33.7661 12.1714 33.5464C12.3911 33.3266 12.6892 33.2031 13 33.2031H19.25C19.5608 33.2031 19.8589 33.3266 20.0786 33.5464C20.2984 33.7661 20.4219 34.0642 20.4219 34.375ZM39.1719 34.375C39.1719 34.6858 39.0484 34.9839 38.8286 35.2036C38.6089 35.4234 38.3108 35.5469 38 35.5469H34.875C34.5642 35.5469 34.2661 35.4234 34.0464 35.2036C33.8266 34.9839 33.7031 34.6858 33.7031 34.375C33.7031 34.0642 33.8266 33.7661 34.0464 33.5464C34.2661 33.3266 34.5642 33.2031 34.875 33.2031H38C38.3108 33.2031 38.6089 33.3266 38.8286 33.5464C39.0484 33.7661 39.1719 34.0642 39.1719 34.375ZM33.7031 26.5625C33.7031 26.2517 33.8266 25.9536 34.0464 25.7339C34.2661 25.5141 34.5642 25.3906 34.875 25.3906H38C38.3108 25.3906 38.6089 25.5141 38.8286 25.7339C39.0484 25.9536 39.1719 26.2517 39.1719 26.5625C39.1719 26.8733 39.0484 27.1714 38.8286 27.3911C38.6089 27.6109 38.3108 27.7344 38 27.7344H34.875C34.5642 27.7344 34.2661 27.6109 34.0464 27.3911C33.8266 27.1714 33.7031 26.8733 33.7031 26.5625Z" fill="#FBF8F8" fill-opacity="0.6"/>
</svg>
