<svg width="41" height="41" viewBox="0 0 41 41" fill="none" xmlns="http://www.w3.org/2000/svg">
<g clip-path="url(#clip0_475_222)">
<path d="M24.2682 40.49C12.9076 40.49 12.8201 40.0188 11.4133 38.9594C10.667 38.3982 9.25893 38.0094 4.1158 37.6744C3.74268 37.65 3.38768 37.5069 3.14959 37.2182C3.04021 37.085 0.470215 33.3369 0.470215 27.3338C0.470215 21.4182 2.30959 18.7219 2.3883 18.5969C2.50051 18.4171 2.65664 18.2688 2.84197 18.166C3.0273 18.0633 3.23575 18.0093 3.44768 18.0094C7.6708 18.0094 13.5252 12.6187 17.4608 3.20874C18.1414 1.58124 18.282 0.51062 20.782 0.51062C22.2039 0.51062 23.7977 1.52874 24.5846 2.83503C26.1989 5.50378 25.3789 11.2357 24.6208 14.2988C27.1989 14.2782 31.8658 14.2432 34.0864 14.2432C37.1751 14.2432 39.2195 16.085 39.2813 18.7775C39.302 19.6663 39.1851 20.8013 38.9282 21.3888C39.6082 22.0669 40.4851 23.0894 40.5232 24.4063C40.5707 26.1063 39.4576 27.4006 38.747 28.1431C38.9101 28.6375 39.2363 29.2931 39.2044 30.0769C39.1263 32.0044 37.6382 33.2463 36.7113 33.8944C36.7882 34.4219 36.8482 35.4169 36.6788 36.1862C36.0101 39.2569 31.5069 40.49 24.2682 40.49L24.2682 40.49ZM4.77889 35.1394C9.25889 35.5101 11.6538 36.0119 12.9169 36.9626C13.8944 37.6988 13.7438 37.9907 24.2682 37.9907C27.4782 37.9907 33.7563 37.8569 34.2376 35.6532C34.4288 34.7719 33.4995 33.9057 33.4963 33.8989C33.2426 33.2726 33.5251 32.5376 34.1438 32.2669C34.1538 32.2619 36.6494 31.3682 36.7063 29.9732C36.7438 29.0814 36.1313 28.5457 36.1176 28.5232C35.7532 27.9582 35.8863 27.1832 36.4388 26.7982C36.4451 26.7932 38.0619 25.8132 38.0226 24.477C37.9919 23.4157 36.5938 22.6688 36.5513 22.6439C36.2388 22.4651 36.0113 22.1557 35.9401 21.802C35.8701 21.4489 35.9488 21.0782 36.1682 20.7914C36.1682 20.7914 36.8038 19.7814 36.7807 18.8339C36.7351 16.8057 34.5538 16.742 34.0857 16.742C30.9326 16.742 22.8345 16.7739 22.8345 16.7739C22.3976 16.7757 22.0195 16.5695 21.7845 16.2201C21.5501 15.8707 21.5326 15.437 21.6701 15.0395C22.8913 11.5226 23.5733 6.00511 22.4407 4.12011C22.107 3.56449 22.0307 3.00949 20.7807 3.00949C20.6076 3.00949 20.1951 3.14636 19.7651 4.17136C15.5883 14.1651 9.34951 19.9457 4.23951 20.467C3.79889 21.472 2.97014 23.5545 2.97014 27.3332C2.97014 31.1901 4.19201 34.1738 4.77893 35.1394H4.77889Z" fill="#FBF8F8" fill-opacity="0.6"/>
</g>
<defs>
<clipPath id="clip0_475_222">
<rect width="40" height="40" fill="white" transform="translate(0.49707 0.5)"/>
</clipPath>
</defs>
</svg>
