<svg width="46" height="46" viewBox="0 0 46 46" fill="none" xmlns="http://www.w3.org/2000/svg">
<path d="M35.6562 18.7812C35.6562 15.4246 34.3228 12.2054 31.9493 9.83193C29.5758 7.45842 26.3566 6.125 23 6.125C19.6434 6.125 16.4242 7.45842 14.0507 9.83193C11.6772 12.2054 10.3438 15.4246 10.3438 18.7812C10.3438 23.9731 14.4978 30.74 23 38.8456C31.5022 30.74 35.6562 23.9731 35.6562 18.7812ZM23 42.6875C12.6866 33.3134 7.53125 25.3428 7.53125 18.7812C7.53125 14.6787 9.16099 10.7441 12.0619 7.84319C14.9629 4.94224 18.8974 3.3125 23 3.3125C27.1026 3.3125 31.0371 4.94224 33.9381 7.84319C36.839 10.7441 38.4688 14.6787 38.4688 18.7812C38.4688 25.3428 33.3134 33.3134 23 42.6875Z" fill="#FBF8F8" fill-opacity="0.6"/>
<path d="M23 20.1875C23.7459 20.1875 24.4613 19.8912 24.9887 19.3637C25.5162 18.8363 25.8125 18.1209 25.8125 17.375C25.8125 16.6291 25.5162 15.9137 24.9887 15.3863C24.4613 14.8588 23.7459 14.5625 23 14.5625C22.2541 14.5625 21.5387 14.8588 21.0113 15.3863C20.4838 15.9137 20.1875 16.6291 20.1875 17.375C20.1875 18.1209 20.4838 18.8363 21.0113 19.3637C21.5387 19.8912 22.2541 20.1875 23 20.1875ZM23 23C21.5082 23 20.0774 22.4074 19.0225 21.3525C17.9676 20.2976 17.375 18.8668 17.375 17.375C17.375 15.8832 17.9676 14.4524 19.0225 13.3975C20.0774 12.3426 21.5082 11.75 23 11.75C24.4918 11.75 25.9226 12.3426 26.9775 13.3975C28.0324 14.4524 28.625 15.8832 28.625 17.375C28.625 18.8668 28.0324 20.2976 26.9775 21.3525C25.9226 22.4074 24.4918 23 23 23ZM38.1875 31.4375L42.6875 42.6875H30.0312V39.875H15.9688V42.6875H3.3125L7.8125 31.4375H38.1875ZM35.1584 31.4375H10.8416L7.46656 39.875H38.5334L35.1584 31.4375Z" fill="#FBF8F8" fill-opacity="0.6"/>
</svg>
