<svg width="51" height="51" viewBox="0 0 51 51" fill="none" xmlns="http://www.w3.org/2000/svg">
<path d="M35.8559 9.88751C31.6527 10.0031 28.3949 11.1438 25.223 12.2469C21.8309 13.425 18.6293 14.5359 14.1934 14.5813C11.2293 14.6281 8.26055 14.1156 5.34336 13.1063L3.27148 12.3906V39.0813L4.31211 39.4516C7.0293 40.4125 9.80742 40.9672 12.573 41.0984C13.0121 41.1188 13.4418 41.1297 13.8637 41.1297C18.5715 41.1297 22.1762 39.8797 25.6715 38.6734C29.3559 37.3984 32.8309 36.1938 37.573 36.4172C40.0866 36.5463 42.5677 37.0433 44.9371 37.8922L47.0215 38.6297V11.9281L45.9934 11.5531C43.3346 10.5849 40.5436 10.0284 37.7168 9.90313C37.0969 9.87561 36.4762 9.8704 35.8559 9.88751ZM35.9402 12.9906C36.4715 12.975 37.0152 12.975 37.5793 12.9969C38.1637 13.0219 38.748 13.075 39.3309 13.1438C39.5686 14.1241 40.1771 14.9742 41.0285 15.5153C41.8799 16.0564 42.9079 16.2464 43.8965 16.0453V30.2672C43.3846 30.163 42.8571 30.1628 42.3451 30.2665C41.8332 30.3702 41.3473 30.5757 40.9163 30.8708C40.4853 31.166 40.1181 31.5447 39.8363 31.9845C39.5546 32.4244 39.3641 32.9164 39.2762 33.4313C38.7586 33.378 38.2397 33.3395 37.7199 33.3156C32.384 33.0813 28.4496 34.4234 24.6465 35.7422C20.9574 37.0203 17.4621 38.2281 12.723 38.0031C12.1328 37.9723 11.5439 37.9202 10.9574 37.8469C10.7177 36.8692 10.109 36.0222 9.25889 35.4831C8.40876 34.944 7.38305 34.7547 6.39648 34.9547V20.7328C6.9114 20.8376 7.4422 20.8371 7.95693 20.7314C8.47166 20.6257 8.95968 20.417 9.39162 20.1177C9.82355 19.8185 10.1905 19.4349 10.4703 18.9901C10.7501 18.5454 10.9371 18.0486 11.0199 17.5297C12.0902 17.6406 13.1605 17.7047 14.2277 17.6875C19.173 17.6375 22.7684 16.3859 26.248 15.1766C29.3121 14.1094 32.2324 13.1063 35.9402 12.9906ZM25.1465 19.25C25.1465 21.4984 24.2699 22.375 22.0215 22.375V25.5C23.234 25.5 24.2668 25.2641 25.1465 24.8563V31.75H28.2715V19.25H25.1465ZM36.8652 20.8125C36.2436 20.8125 35.6475 21.0594 35.208 21.499C34.7684 21.9385 34.5215 22.5347 34.5215 23.1563C34.5215 23.7779 34.7684 24.374 35.208 24.8135C35.6475 25.2531 36.2436 25.5 36.8652 25.5C37.4868 25.5 38.083 25.2531 38.5225 24.8135C38.9621 24.374 39.209 23.7779 39.209 23.1563C39.209 22.5347 38.9621 21.9385 38.5225 21.499C38.083 21.0594 37.4868 20.8125 36.8652 20.8125ZM13.4277 25.5C12.8061 25.5 12.21 25.7469 11.7705 26.1865C11.3309 26.626 11.084 27.2222 11.084 27.8438C11.084 28.4654 11.3309 29.0615 11.7705 29.501C12.21 29.9406 12.8061 30.1875 13.4277 30.1875C14.0493 30.1875 14.6455 29.9406 15.085 29.501C15.5246 29.0615 15.7715 28.4654 15.7715 27.8438C15.7715 27.2222 15.5246 26.626 15.085 26.1865C14.6455 25.7469 14.0493 25.5 13.4277 25.5Z" fill="#FBF8F8" fill-opacity="0.6"/>
</svg>
