<svg width="51" height="50" viewBox="0 0 51 50" fill="none" xmlns="http://www.w3.org/2000/svg">
<path d="M26.0859 6.24688C24.0594 6.21094 21.9484 6.52813 19.75 7.20156C16.8125 8.10781 14.3281 9.81094 12.2656 12.1391C11.9844 12.4672 11.7812 12.8109 12.0469 13.2016C12.2656 13.4984 12.1406 13.6578 11.9844 13.8922C10.5313 15.9234 9.54688 18.1547 9.09375 20.6078C9.04688 20.9203 8.89062 21.0484 8.625 21.1734C7.59375 21.6891 6.98437 22.5328 6.8125 23.6734L6.75 25.6094V27.6375C6.75 29.8875 8.28125 31.3266 10.5469 31.2328C11.1094 31.2016 11.4375 30.9047 11.4375 30.3891V23.5484C11.4375 23.5094 11.5109 21.5719 11.6875 20.6703C12.0531 18.8328 12.7031 17.3016 13.5547 16.0422C16.0344 12.0469 20.45 9.375 25.5 9.375C29.2296 9.375 32.8065 10.8566 35.4437 13.4938C38.0809 16.131 39.5625 19.7079 39.5625 23.4375V30.1406C39.5625 30.6563 39.6875 31.0625 40.2188 31.1875C41.9844 31.5469 43.8281 30.3125 44.125 28.5C44.3281 27.25 44.1875 25.4688 44.1875 24.2031C44.1719 22.8281 43.5625 21.7656 42.2813 21.125C42.0781 21.0313 41.9219 20.9219 41.8594 20.6563C41.4129 18.1712 40.3968 15.8233 38.8906 13.7969C38.8125 13.6875 38.6406 13.5625 38.7344 13.4375C39.3594 12.5938 38.7188 12.1094 38.2188 11.6406C34.5891 8.12656 30.5438 6.32813 26.0859 6.24688ZM16.6859 25.0031C15.7016 24.9406 14.9078 25.5813 14.6875 26.7125C14.3531 28.3375 14.6875 29.8969 15.6359 31.2984C16.2922 32.2516 17.3016 32.7016 18.475 32.7828C19.2297 32.8203 21.9125 32.925 22.5125 32.7266C23.2938 32.4484 23.825 31.9859 23.9922 31.2188C24.1453 30.4531 23.1953 29.3563 21.8672 28.1922C20.5 27.0016 18.7109 25.7703 17.7188 25.3078C17.3999 25.1356 17.0487 25.0319 16.6875 25.0031H16.6859ZM34.8469 28.1375C33.3844 28.0031 31.3063 28.9656 30.3672 29.3563C25.3156 31.3844 27.2641 33.3359 28.8391 33.7703L32.4031 34.3297C34.9203 34.5297 36.4938 32.2516 36.4344 29.925C36.3797 28.6938 35.725 28.2188 34.8469 28.1375ZM38.4641 32.8156C38.4153 32.8195 38.3677 32.8331 38.3242 32.8557C38.2808 32.8782 38.2422 32.9092 38.2109 32.9469C38.1797 32.9938 38.1641 33.0438 38.1484 33.075C37.5734 34.9984 34.9641 41.5391 25.9094 42.2125C15.2641 42.9969 31.6125 45.4813 36.2531 41.7297C37.8625 40.4141 39.6359 39.1016 39.5594 35.3188C39.5297 34.5484 39.2125 33.3141 38.7422 32.8969C38.6629 32.836 38.5637 32.807 38.4641 32.8156Z" fill="#FBF8F8" fill-opacity="0.6"/>
</svg>
