<svg width="31" height="31" viewBox="0 0 31 31" fill="none" xmlns="http://www.w3.org/2000/svg">
<path d="M3.52228 9.03936L13.0348 13.9867C13.1302 14.0363 13.2362 14.0622 13.3437 14.0622C13.4513 14.0622 13.5572 14.0363 13.6526 13.9867L23.1651 9.04025V17.634C23.1652 18.3752 22.8816 19.0883 22.3726 19.6271C21.8635 20.1658 21.1676 20.4894 20.4276 20.5313L20.2633 20.5358H6.42406C5.68287 20.5358 4.96975 20.2523 4.431 19.7432C3.89225 19.2342 3.56871 18.5383 3.52674 17.7983L3.52228 17.634V9.03936ZM6.42406 4.46436H20.2633C21.0045 4.46431 21.7177 4.74789 22.2564 5.25692C22.7952 5.76595 23.1187 6.46185 23.1607 7.20186L23.1651 7.36614V7.53043L13.3437 12.6376L3.52228 7.53043V7.36614C3.52223 6.62495 3.80581 5.91183 4.31484 5.37308C4.82388 4.83433 5.51977 4.51078 6.25978 4.46882L6.42406 4.46436H20.2633H6.42406Z" fill="#FBF8F8"/>
</svg>
