<svg width="31" height="31" viewBox="0 0 31 31" fill="none" xmlns="http://www.w3.org/2000/svg">
<path d="M11.1481 3.5C6.47375 3.5 2.68776 7.2881 2.68776 11.9603C2.68479 13.7851 3.27457 15.5615 4.36835 17.0222L9.79505 26.4218C9.82655 26.4824 9.85805 26.5427 9.89675 26.5982L9.90875 26.6189L9.91205 26.6171C10.0533 26.8139 10.2396 26.9741 10.4554 27.0843C10.6712 27.1945 10.9103 27.2514 11.1526 27.2504C11.6194 27.2504 12.0262 27.038 12.3061 26.7107L12.3202 26.7188L12.3739 26.6258C12.4531 26.519 12.5233 26.405 12.574 26.2793L17.8906 17.0699C19.0075 15.6009 19.611 13.8057 19.6084 11.9603C19.6084 7.2881 15.8224 3.5 11.1481 3.5V3.5ZM11.0644 16.2494C8.76125 16.2494 6.89585 14.3831 6.89585 12.0809C6.89585 9.779 8.76125 7.9124 11.0644 7.9124C13.3675 7.9124 15.2329 9.779 15.2329 12.0809C15.2329 14.3828 13.3675 16.2494 11.0644 16.2494V16.2494Z" fill="#FBF8F8"/>
</svg>
