<svg width="31" height="31" viewBox="0 0 31 31" fill="none" xmlns="http://www.w3.org/2000/svg">
<path d="M24.2463 25.5C13.5825 25.515 5.48876 17.325 5.50001 6.75375C5.50001 6.0625 6.06001 5.5 6.75001 5.5H10.05C10.6688 5.5 11.195 5.955 11.2863 6.5675C11.5039 8.03632 11.9312 9.46631 12.555 10.8137L12.6838 11.0912C12.7702 11.278 12.7889 11.4891 12.7364 11.688C12.6839 11.887 12.5636 12.0615 12.3963 12.1812C11.3738 12.9112 10.9838 14.38 11.78 15.525C12.7788 16.9625 14.0375 18.2225 15.475 19.2212C16.6213 20.0162 18.09 19.6262 18.8188 18.605C18.9384 18.4372 19.113 18.3164 19.3123 18.2637C19.5116 18.211 19.723 18.2296 19.91 18.3162L20.1863 18.4437C21.5338 19.0687 22.9638 19.4962 24.4325 19.7137C25.045 19.805 25.5 20.3312 25.5 20.9512V24.25C25.5 24.4143 25.4676 24.5769 25.4047 24.7286C25.3418 24.8804 25.2497 25.0182 25.1335 25.1343C25.0172 25.2504 24.8793 25.3425 24.7275 25.4052C24.5757 25.468 24.413 25.5002 24.2488 25.5H24.2463Z" fill="#FBF8F8"/>
</svg>
